<svg xmlns="http://www.w3.org/2000/svg" viewBox="0 0 16 12.708">
    <path d="M10.79 11.266 9.176 9.654A3.5 3.5 0 0 1 4.7 5.177l-2.06-2.06A13.539 13.539 0 0 0 0 6.354s3 5.5 8 5.5a7.029 7.029 0 0 0 2.79-.588ZM5.21 1.442A7.028 7.028 0 0 1 8 .854c5 0 8 5.5 8 5.5a13.616 13.616 0 0 1-2.641 3.238L11.3 7.53a3.5 3.5 0 0 0-4.477-4.476L5.21 1.443Z" fill="#dc3545"/>
    <path d="M5.525 6a2.5 2.5 0 0 0 2.829 2.829L5.524 6Zm4.95.708-2.829-2.83a2.5 2.5 0 0 1 2.829 2.829Zm3.171 6-12-12L2.354 0l12 12Z" fill="#dc3545"/>
</svg>