<svg xmlns="http://www.w3.org/2000/svg" viewBox="0 0 15.621 16">
  <path d="m13.763 8.789 1.69 1.315a.4.4 0 0 1 .113.526l-1.615 2.779a.329.329 0 0 1-.488.15l-1.991-.789a7.566 7.566 0 0 1-1.352.789l-.3 2.1a.359.359 0 0 1-.413.338H6.218a.386.386 0 0 1-.413-.338l-.3-2.1a6.148 6.148 0 0 1-1.357-.789l-1.991.789a.366.366 0 0 1-.488-.15l-1.615-2.78a.4.4 0 0 1 .113-.526l1.69-1.315q-.039-.45-.039-.788t.038-.789L.167 5.897a.4.4 0 0 1-.113-.526l1.615-2.779a.339.339 0 0 1 .488-.15l1.991.788A7.566 7.566 0 0 1 5.5 2.441l.3-2.1A.386.386 0 0 1 6.218 0h3.189a.359.359 0 0 1 .411.338l.3 2.1a6.148 6.148 0 0 1 1.352.789l1.991-.789a.366.366 0 0 1 .488.15l1.615 2.779a.4.4 0 0 1-.113.526l-1.69 1.315a4.877 4.877 0 0 1 .075.789 4.877 4.877 0 0 1-.073.792ZM7.81 10.817a2.692 2.692 0 0 0 1.972-.826A2.713 2.713 0 0 0 10.608 8a2.713 2.713 0 0 0-.826-1.991 2.766 2.766 0 0 0-3.944 0A2.713 2.713 0 0 0 5.012 8a2.713 2.713 0 0 0 .826 1.991 2.692 2.692 0 0 0 1.972.826Z"/>
</svg>