<svg xmlns="http://www.w3.org/2000/svg" viewBox="0 0 16 16">
    <path d="M15 16H7a.953.953 0 0 1-.711-.3A.974.974 0 0 1 6 15v-2a.974.974 0 0 1 .289-.7A.953.953 0 0 1 7 12h8a1.014 1.014 0 0 1 1 1v2a.953.953 0 0 1-.3.711.974.974 0 0 1-.7.289Zm0-6H7a.987.987 0 0 1-1-1V7a.987.987 0 0 1 1-1h8a.974.974 0 0 1 .7.289A.953.953 0 0 1 16 7v2a.953.953 0 0 1-.3.711.974.974 0 0 1-.7.289Zm0-6H7a.953.953 0 0 1-.707-.3A.974.974 0 0 1 6 3V1a.966.966 0 0 1 .293-.711A.966.966 0 0 1 7 0h8a.974.974 0 0 1 .7.289A.953.953 0 0 1 16 1v2a.961.961 0 0 1-.3.7.961.961 0 0 1-.7.3ZM3 16H1a.961.961 0 0 1-.7-.3.961.961 0 0 1-.3-.7v-2a.961.961 0 0 1 .3-.7.961.961 0 0 1 .7-.3h2a.961.961 0 0 1 .7.3.961.961 0 0 1 .3.7v2a.987.987 0 0 1-1 1Zm0-6H1a.974.974 0 0 1-.7-.289A.953.953 0 0 1 0 9V7a.953.953 0 0 1 .3-.711A.974.974 0 0 1 1 6h2a.974.974 0 0 1 .7.289A.953.953 0 0 1 4 7v2a.987.987 0 0 1-1 1Zm0-6H1a.961.961 0 0 1-.7-.3A.961.961 0 0 1 0 3V1A.953.953 0 0 1 .293.289.974.974 0 0 1 1 0h2a.974.974 0 0 1 .7.289A.953.953 0 0 1 4 1v2a.974.974 0 0 1-.289.7A.953.953 0 0 1 3 4Z" />
</svg>