<svg xmlns="http://www.w3.org/2000/svg" viewBox="0 0 11.579 16">
    <g transform="translate(-2.737 -.88)">
        <path d="M8.524.88a5.792 5.792 0 0 0-5.787 5.762c0 2.294 1.287 4.215 2.23 5.615l.172.255a48.934 48.934 0 0 0 3.016 3.93l.373.437.373-.437a49.037 49.037 0 0 0 3.016-3.93l.172-.26c.938-1.4 2.225-3.316 2.225-5.61A5.792 5.792 0 0 0 8.524.88Zm0 8.351a3.223 3.223 0 1 1 3.223-3.223 3.223 3.223 0 0 1-3.223 3.223Z"/>
        <circle cx="1.832" cy="1.832" r="1.832" transform="translate(6.691 4.176)"/>
    </g>
</svg>