<?xml version="1.0" encoding="UTF-8"?><svg id="a" xmlns="http://www.w3.org/2000/svg" viewBox="0 0 349.12 349.12"><defs><style>.c{fill:#4eaead;}.c,.d,.e,.f{stroke-width:0px;}.d{fill:#fff;}.e{fill:#e5593b;}.f{fill:#404041;}</style></defs><g id="b"><path class="e" d="m151.52,62.35h59.9c28.2,0,51.1,22.9,51.1,51.1v40.19c0,1.93-1.56,3.49-3.49,3.49H100.42v-43.68c0-28.2,22.9-51.1,51.1-51.1Z"/><path class="c" d="m243.14,319.23h-119.66c-12.73,0-23.05-10.32-23.05-23.05v-142.97h145.39l16.71-9.17v155.8c0,10.7-8.68,19.38-19.38,19.38Z"/><path class="e" d="m75.88,299h0c-8.12,0-14.76-6.64-14.76-14.76v-47.93c0-8.12,6.64-14.76,14.76-14.76h0c8.12,0,14.76,6.64,14.76,14.76v47.93c0,8.12-6.64,14.76-14.76,14.76Z"/><path class="e" d="m285.46,298.56h0c-8.12,0-14.76-6.64-14.76-14.76v-47.92c0-8.12,6.64-14.76,14.76-14.76h0c8.12,0,14.76,6.64,14.76,14.76v47.92c0,8.12-6.64,14.76-14.76,14.76Z"/><rect class="d" x="160.08" y="133.84" width="26.41" height="46.58" rx="1.66" ry="1.66"/><path class="e" d="m181.35,180.41h0c-5.85,0-10.63-4.78-10.63-10.63v-25.31c0-5.85,4.78-10.63,10.63-10.63h0c5.85,0,10.63,4.78,10.63,10.63v25.31c0,5.85-4.78,10.63-10.63,10.63Z"/><path class="c" d="m191.98,153.21v-8.62c0-5.91-4.78-10.75-10.63-10.75s-10.63,4.84-10.63,10.75v8.62h21.26Z"/><path class="f" d="m110.83,79.56c1.11,0,2.22-.38,3.13-1.17.46-.4.93-.79,1.4-1.18,2.04-1.67,2.34-4.68.67-6.72-1.67-2.04-4.68-2.34-6.72-.67-.54.44-1.07.89-1.6,1.35-1.99,1.73-2.21,4.74-.48,6.74.94,1.09,2.27,1.65,3.61,1.65Z"/><path class="f" d="m52.49,265.41c1.98,0,3.58-1.6,3.58-3.58v-1.99c0-1.98-1.6-3.58-3.58-3.58s-3.58,1.6-3.58,3.58v1.99c0,1.98,1.6,3.58,3.58,3.58Z"/><path class="f" d="m52.49,254.26c1.98,0,3.58-1.6,3.58-3.58v-16.27c0-1.52.25-3.01.76-4.43.66-1.87-.32-3.91-2.18-4.57-1.86-.66-3.91.31-4.57,2.18-.78,2.19-1.17,4.49-1.17,6.82v16.27c0,1.98,1.6,3.58,3.58,3.58Z"/><path class="f" d="m139.32,280.25c3.36,0,6.09-2.73,6.09-6.09s-2.73-6.09-6.09-6.09-6.09,2.73-6.09,6.09,2.73,6.09,6.09,6.09Z"/><path class="f" d="m210.41,280.25c3.36,0,6.09-2.73,6.09-6.09s-2.73-6.09-6.09-6.09-6.09,2.73-6.09,6.09,2.73,6.09,6.09,6.09Z"/><path class="f" d="m283.25,214.19v-25.29c0-6.65-5.42-12.07-12.07-12.07-1.07,0-2.11.15-3.1.42v-49.1c0-34.87-23.82-64.28-56.04-72.83v-6.87c0-12.51-10.18-22.69-22.69-22.69h-28.96c-12.51,0-22.69,10.18-22.69,22.69v6.86c-6.22,1.64-12.23,4.08-17.84,7.27-2.29,1.3-3.1,4.22-1.8,6.51,1.3,2.3,4.22,3.1,6.51,1.8,9.84-5.58,21.05-8.53,32.43-8.53h35.73c36.28,0,65.79,29.52,65.79,65.8v5.05c-.28.38-.5.82-.61,1.31-2.57,10.64-12.36,18.36-23.29,18.36h-41.85v-8.28c0-8.65-6.16-15.89-14.33-17.55v-11.31c0-1.98-1.6-3.58-3.58-3.58s-3.58,1.6-3.58,3.58v11.31c-8.17,1.66-14.33,8.9-14.33,17.55v8.28h-44.14c-8.98,0-17.13-4.99-21.29-13.02-.09-.17-.2-.33-.31-.48v-11.22c0-14.78,4.78-28.73,13.83-40.37,1.62-2.08,1.25-5.08-.84-6.7-2.08-1.62-5.08-1.24-6.7.84-10.37,13.33-15.85,29.31-15.85,46.23v49.27c-1.17-.38-2.41-.59-3.71-.59-6.65,0-12.07,5.41-12.07,12.07v25.3c-1.77.31-3.49.83-5.13,1.61-1.79.84-2.56,2.98-1.71,4.77.84,1.79,2.98,2.56,4.77,1.71,1.78-.84,3.68-1.26,5.66-1.26h0s0,0,0,0c5.42,0,10.09,3.25,12.19,7.89v61.84c-2.1,4.65-6.77,7.89-12.2,7.89-7.38,0-13.39-6.01-13.39-13.39v-11.89c0-1.98-1.6-3.58-3.58-3.58s-3.58,1.6-3.58,3.58v11.89c0,11.33,9.22,20.56,20.56,20.56,4.78,0,9.17-1.65,12.66-4.4,2.34,12.48,13.3,21.95,26.44,21.95h132.6c2.96,0,5.88-.48,8.67-1.43,2.5-.85,3.83-3.56,2.99-6.06-.85-2.5-3.56-3.84-6.06-2.99-1.79.61-3.68.92-5.59.92h-8.07v-57.86c0-9.71-7.9-17.62-17.61-17.62h-10.15c-9.71,0-17.62,7.9-17.62,17.62v57.86h-25.71v-57.86c0-9.71-7.9-17.62-17.61-17.62h-10.15c-9.71,0-17.61,7.9-17.61,17.62v57.86h-8.07c-9.57,0-17.36-7.79-17.36-17.36v-145.18c5.71,5.54,13.39,8.76,21.6,8.76h44.14v9.63c0,8.65,6.16,15.89,14.33,17.55v13.7c0,1.98,1.6,3.58,3.58,3.58s3.58-1.6,3.58-3.58v-13.7c8.17-1.66,14.33-8.9,14.33-17.55v-9.63h41.85c9.51,0,18.14-4.28,23.9-11.21v147.63c0,3.96-1.3,7.69-3.75,10.78-1.64,2.07-1.3,5.07.77,6.71.88.7,1.93,1.04,2.97,1.04,1.41,0,2.8-.62,3.74-1.81,2.64-3.32,4.42-7.24,5.26-11.38,3.41,2.51,7.6,4.01,12.15,4.01,11.33,0,20.56-9.22,20.56-20.56v-50.85c0-10.11-7.34-18.52-16.97-20.22ZM157,52.8c-3.27,0-6.53.21-9.75.63v-4.98c0-7.24,5.89-13.14,13.14-13.14h28.96c7.24,0,13.14,5.89,13.14,13.14v5c-3.2-.41-6.45-.65-9.75-.65h-35.73Zm48.33,192.7h10.15c5.76,0,10.45,4.69,10.45,10.45v41.2h-31.05v-41.2c0-5.76,4.69-10.45,10.45-10.45Zm-10.45,58.82h31.05v9.49h-31.05v-9.49Zm-60.64-58.82h10.15c5.76,0,10.45,4.69,10.45,10.45v41.2h-31.05v-41.2c0-5.76,4.69-10.45,10.45-10.45Zm-10.45,58.82h31.05v9.49h-31.05v-9.49Zm-50.76-90.13v-25.29c0-2.7,2.2-4.9,4.9-4.9,1.49,0,2.81.68,3.71,1.73v32.17c-2.5-1.85-5.43-3.15-8.61-3.71Zm112.57-44.52c0,5.93-4.82,10.75-10.75,10.75s-10.75-4.82-10.75-10.75v-25.08c0-5.93,4.82-10.75,10.75-10.75s10.75,4.82,10.75,10.75v25.08Zm85.56,14.33c2.7,0,4.9,2.2,4.9,4.9v25.29c-2.92.52-5.64,1.64-8,3.26v-32.31c.85-.7,1.92-1.13,3.1-1.13Zm21.88,101.26c0,7.38-6.01,13.39-13.39,13.39-4.95,0-9.27-2.7-11.58-6.7v-64.22c2.32-4,6.63-6.7,11.58-6.7,0,0,0,0,0,0h0c7.38,0,13.39,6.01,13.39,13.39v50.85Z"/></g></svg>