<?xml version="1.0" encoding="UTF-8"?><svg id="a" xmlns="http://www.w3.org/2000/svg" viewBox="0 0 462.04 512"><defs><style>.b,.c{stroke-width:0px;}.c{fill:#fff;}</style></defs><rect class="c" width="462.04" height="512"/><path class="b" d="m383.23,260.69c-.47,13.88-3.2,27.04-7.43,39.9-3.76,11.46-10.09,21.6-16.78,31.5-.95,1.4-.92,2.3-.1,3.61,1.68,2.69,3.15,5.52,4.85,8.2.91,1.44.85,2.39-.25,3.8-9.96,12.72-22.2,22.15-37.85,26.82-.3.09-.56.32-1.07.62,4.71,1.89,9.35,1.74,13.57.1,6.51-2.53,11.61.22,15.94,4.05,5.19,4.58,10.33,5.43,16.56,2.95,6.22-2.47,12.71-3.55,19.5-2.49-2.56-3.02-5.97-4.38-9.67-4.23-3.38.14-6.71,1.24-10.08,1.75-2.76.41-5.55.66-8.34.79-.82.04-1.68-.58-2.84-1.01,4.32-1.72,8.16-3.34,12.06-4.77,5.3-1.94,10.74-2.25,16.21-.74,9,2.5,12.86,8.62,11.38,17.89-.16.98-.42,1.93-.72,3.27-3.45-4.41-7.48-7.24-12.68-8.27-17.19-3.38-33.47,13.18-29.18,29.75.86,3.33,2.47,6.25,5.54,8.07,2.43,1.43,3.95.96,5.67-1.28.46-.6,1.98-1.25,2.18-1.05.69.7,1.5,1.84,1.37,2.67-.38,2.42-2.06,3.89-4.49,4.36-3.43.66-6.66-.08-9.07-2.53-2.24-2.27-3.99-5.03-5.73-7.29-2.1,2.88-4.3,6.55-7.12,9.65-11.55,12.73-25.57,16.76-42,11.1-6.85-2.36-13.69-4.55-21.06-4.34-6.08.18-12.06.87-17.21,4.44-1.71,1.19-3.21,2.86-4.38,4.6-1.33,1.96-1.3,4.3-.04,6.37,1.24,2.05,3.13,3.11,5.63,2.88,2.08-.19,3.62-1.22,4.34-3.14.92-2.46.16-4.53-1.94-6.05,4.72-6.58,18.68-7.51,26.86-1.79-4.7,4.66-10.65,4.46-16.8,4.21.28.72.43,1.1.58,1.48,3.02,8.17-.8,15.8-9.12,18.22-8.17,2.38-16.62-2.43-18.39-10.46-1.72-7.82,2.53-15.66,10.83-19.97,8.83-4.58,18.29-5.24,27.87-3.94,4.63.63,9.1,2.34,13.65,3.55,1.15.31,2.38.9,3.47.73,1.3-.2,3.18-.81,3.55-1.75.46-1.15.03-3.11-.75-4.2-1.61-2.26-4.26-2.69-6.93-2.69-5.49,0-10.98,0-16.39,0,.26-.18.73-.58,1.27-.85,6.58-3.38,13.21-6.71,20.64-7.73,2.43-.34,4.99-.33,7.41.06,2.59.41,4.16,2.6,3.82,4.43-.36,1.93-2.24,2.72-5.28,2.22-.49-.08-.98-.12-1.56-.19,2.22,3.61,4.12,4.63,7.35,4.03,2.68-.49,5.06-3.05,5.62-6.06.6-3.18-.54-6.16-3.49-7.63-2.39-1.19-5.09-1.79-7.96-2.76,3.55-3.86,7.88-4.04,12.74-3.06v-6.73c5.06.68,6.39,7.28,4.17,19.98,3.32-3.35,5.45-6.97,5.69-11.66.26-5-2.33-8.02-6.67-10.02.02-.28.05-.56.07-.84,1.72-.4,3.64-.44,5.1-1.29,1.41-.82,2.33-2.46,3.48-3.76,3.06,3.89,4.92,9.94,5.2,16.77,3.34-3.86,4.06-12.81,1.36-16.92-2.15-3.28-5.59-4.95-9.33-3.66-3.09,1.07-6.22,2.63-8.74,4.69-14.34,11.78-30.1,21.09-47.46,27.58-11.22,4.2-22.84,6.89-34.81,7.92-1.8.15-3.59.33-5.39.51-.16.02-.3.13-.71.32.53.61.98,1.18,1.5,1.69,4.98,4.95,6.96,10.86,5.94,17.84-.2,1.38-.12,2.92.29,4.25,2.54,8.25,2.51,16.09-3.15,23.2-.16.2-.3.42-.48.6-.12.12-.29.18-.72.43-1.71-2-3.45-4.05-5.21-6.11-1.71,3.59.34,6.29,2.62,9.13-2.73,3.01-5.41,5.97-8.27,9.13-2.94-3.11-5.69-6.01-8.48-8.95,1.36-2.97,4.22-5.56,2.02-9.29-1.62,2.11-3.2,4.18-4.88,6.36-6.21-7.15-6.79-14.97-4.48-23.42.54-1.98.63-4.19.44-6.25-.59-6.38,1.35-11.83,5.48-16.6.5-.58,1.06-1.11,1.59-1.68.05-.05.04-.15.09-.43-4.22-.47-8.46-.81-12.64-1.44-23.53-3.52-44.96-12.29-64.36-26.03-4.27-3.02-8.27-6.42-12.49-9.52-1.71-1.26-3.57-2.44-5.54-3.22-6.26-2.51-11.95.98-12.72,7.71-.49,4.21.57,8.11,2.33,11.19,1.58-4.98,3.26-10.29,4.94-15.61.21-.18.41-.37.62-.55,2,3.82,5.36,5.26,9.47,5.91-4.99,2.18-7.51,5.54-7.05,10.79.4,4.64,2.4,8.43,5.98,11.78-2.6-12.71-1.4-19.78,3.67-20.95.1,2.28.21,4.53.31,6.88,4.84-.28,9.46-.57,13.36,3.8-2.23.4-3.9.59-5.5,1.01-5.14,1.36-7.81,6.35-5.71,10.69,1.18,2.45,2.97,4.21,5.9,4.35,2.61.12,4.2-.95,6.08-4.25-1.31.08-2.47.22-3.63.21-2.74-.02-3.69-1.71-2.3-4.09,1.15-1.98,3.06-3.04,5.19-2.72,4.3.64,8.67,1.26,12.76,2.64,4.33,1.46,8.36,3.78,12.53,5.73l-.22.7c-3.27,0-6.54.02-9.81,0-1.89-.02-3.8-.3-5.66-.1-1.57.17-3.2.65-4.6,1.39-1.9.99-3.14,4.04-1.96,5.23,1.08,1.09,3.1,1.8,4.66,1.72,1.98-.1,3.91-1.18,5.87-1.79,11.81-3.68,23.62-4.24,35.36.26,5.59,2.14,9.76,6.04,12.73,11.17,2.72,4.71,1.98,11.4-1.54,15.75-3.7,4.57-9.96,6.57-15.55,4.97-9.2-2.64-12.82-9.83-9.57-19.57-5.61,0-11.23.07-15.6-4.18,6.74-5.98,19.82-5.44,26.33,1.13-.14.24-.24.59-.47.77-1.96,1.57-2.29,3.63-1.47,5.8.82,2.16,2.66,3.04,4.93,3,2.5-.04,4.25-1.22,5.18-3.53,1.26-3.14.38-6.35-2.45-8.79-4.72-4.09-10.47-5.34-16.46-5.82-7.86-.62-15.35.89-22.69,3.69-8.58,3.27-17.39,4.14-26.25,1.2-10.84-3.6-18.45-10.94-23.54-21.05-.22-.44-.43-.89-.73-1.52-1.2,2.13-2.14,4.22-3.46,6.03-2.53,3.46-5.9,5.52-10.37,4.98-2.56-.31-4.64-1.56-5.38-4.13-.24-.83.49-1.95.77-2.93.88.33,2.03.42,2.6,1.04,2.17,2.34,4.31,2.98,6.53.73,1.95-1.98,3.79-4.62,4.42-7.27,2.38-10.08-.87-18.54-8.91-24.93-7.46-5.94-15.88-7.23-24.66-3.37-2.8,1.23-5.12,3.59-7.6,5.39-3.28-8.89.61-18.64,11.87-20.29,5.59-.82,10.93-.23,16.15,1.91,3.24,1.33,6.57,2.45,10.03,3.73-2.29,1.7-4.88,1.92-7.58,1.3-3.42-.79-6.78-1.88-10.23-2.53-3.44-.65-6.88-.33-10,1.47-.92.53-1.64,1.39-2.93,2.51,1.27,0,1.92.06,2.55,0,5.86-.65,11.41.5,16.91,2.51,2.37.87,4.99,1.31,7.51,1.42,2.91.13,5.59-.99,7.64-3.16,3.2-3.4,7.36-4.98,11.68-6.21.95-.27,2.18.12,3.18.47,4.71,1.65,9.48,2.4,14.43,1.26.7-.16,1.38-.41,2.78-.84-17.55-4.59-30.29-14.92-40.95-28.69,1.7-3.24,3.38-6.7,5.31-10,.92-1.57.81-2.63-.18-4.13-10.17-15.31-17.83-31.74-21.16-49.93-1.31-7.16-2.09-14.41-3.21-22.31-3.36.71-6.99,1.18-10.43,2.26-6.81,2.14-12.66,6.11-18.12,10.61-3.17,2.61-4.26,4.9-4.27,7.96,1.1.21,2.22.43,3.32.64-.28,3.64-2.22,5.36-5.51,5.01-3.53-.38-6.25-2.09-7.46-5.49-1.14-3.21-.15-6.13,2.19-8.51.76-.78,1.86-1.22,2.81-1.82.14.17.29.33.43.5-.29.82-.57,1.65-1.05,3.02,2.31-1.76,4.21-3.19,5.78-4.39-3.28-.47-6.94-.51-10.25-1.62-2.44-.82-4.59-2.85-6.54-4.69-1.52-1.43-1.85-3.46-.63-5.15-2.49-1.47-4.97-2.92-8.23-4.84,3.28-2.02,5.88-3.61,8.56-5.26-1.18-2.76-.89-4.6,1.7-7.2,3.02-3.04,6.84-4.13,10.99-4.29,1.28-.05,2.57,0,4.41,0-1.85-1.32-3.3-2.36-5.04-3.59-.08.95-.15,1.71-.22,2.5-3.98-1.58-6.01-4.97-5.33-8.72.66-3.68,3.86-6.51,7.52-6.64,3.16-.12,5.17,1.29,5.86,4.16-.18.14-.36.34-.59.43-3.44,1.32-4,2.49-1.34,5.21,3.39,3.47,7.18,6.66,11.18,9.4,6.16,4.23,12.85,7.51,20.53,8.91.3-3.9.53-7.64.89-11.36,1.62-16.8,5.57-32.97,13.13-48.17.57-1.14.25-2.71.35-4.08-.33-.09-.67-.18-1-.27-1.01,1.32-1.96,2.68-3.03,3.94-3.24,3.78-6.45,7.6-9.82,11.26-8.34,9.08-9.87,20.22-4.19,31.17.52,1,.88,2.08,1.31,3.12-.28.26-.56.53-.84.79-1.34-.98-2.89-1.77-3.99-2.98-5.9-6.51-7.09-14.28-5.57-22.63,1.49-8.23,6.21-14.78,11.25-21.15.53-.67,1.13-1.29,1.54-2.19-.52.3-1.07.55-1.55.9-6.11,4.56-11.5,9.82-15.47,16.39-3.48,5.77-5.16,11.92-3.76,18.72,1.24,6.02,4.21,10.83,9.41,14.19,1.29.83,2.59,1.64,3.89,2.45.01.29.03.57.04.86-1.06.12-2.24.6-3.17.31-7.12-2.22-12.06-6.78-14.2-14.03-2.76-9.36-.57-17.86,4.96-25.6,6.66-9.32,15.6-16.11,25.23-22.08,1.02-.63,2.08-1.2,3.12-1.81.36-.22.7-.48,1.17-.81-.79-1.9-1.57-3.76-2.22-5.33-7.24,5.97-14.67,11.74-21.68,17.99-4.44,3.97-8.25,8.65-12.19,12.85-2.3-6.25.52-14.13,7.25-18.39,2.88-1.83,6.04-3.29,9.21-4.56,7.08-2.83,11.41-7.96,13.52-15.42-4.47,2.38-8.97,3.95-14.26,2.14.88-1.44,1.55-2.7,2.38-3.84.27-.37.99-.68,1.44-.62,4.83.69,8.82-1.27,12.28-4.24,2.57-2.2,4.71-4.91,7.25-7.62-.72-.17-.97-.32-1.16-.26-6.63,2.09-13.33,3.99-19.85,6.38-6.88,2.52-12.24,7.17-16.48,13.13-.29.4-.64.76-1.48,1.76v-103.64c.61-.03,1.44-.11,2.26-.11,11.69-.02,23.38-.2,35.06.06,3.78.08,7.71.87,11.27,2.15,5.05,1.82,8.78,7.03,9,11.88-.86-.83-1.37-1.4-1.97-1.88-4.82-3.91-10.08-5.93-16.22-3.42-4.39,1.79-6.97,6.83-5.67,10.9,1.96,6.16,8.67,8.91,13.31,3.39,3.07,3.19,3.29,10.05.49,15.7-3.76,7.59-11.39,11.68-19.97,10.71-7.75-.88-12.66-5.89-14.87-15.4-.49.39-.97.66-1.31,1.05-4.82,5.55-7.01,12.05-6.04,19.31,1.23,9.24,9.58,16.4,19.53,17.23,5.66.48,11.16-.14,16.38-2.49,6.42-2.89,12.8-2.81,18.82.02-6.67,7.59-13.42,15.26-20.18,22.94.16.34.32.69.47,1.03,2.52,0,5.04.13,7.54-.08.71-.06,1.5-.98,1.97-1.69,19.28-29.56,45.05-51.38,77.78-64.69,13.28-5.4,27.26-8.25,41.57-9.29.49-.04.99-.1,1.89-.2-.71-.78-1.18-1.31-1.67-1.82-4.98-5.19-6.86-11.37-5.73-18.44.37-2.33.25-4.44-.54-6.75-2.76-8.07-1.88-15.71,3.98-23.16,1.95,2.47,3.75,4.74,5.54,7,1.5-3.64-.22-6.57-2.85-9.45,2.82-3.22,5.62-6.41,8.57-9.77,3.04,3.28,5.88,6.34,8.71,9.39-1.01,1.72-2.21,3.23-2.81,4.95-.55,1.6-.46,3.43-.13,5.23,1.79-2.38,3.59-4.75,5.63-7.45,3.65,4.51,6.05,9.02,5.58,14.1-.72,7.87-1.6,15.7-1.86,23.63-.15,4.81-3.25,8.75-7.38,12.35,2.25.32,4.03.62,5.81.82,29.97,3.33,56.38,15.05,79.67,33.99,13.87,11.28,26.39,23.83,35.74,39.26.54.9,1.93,1.62,3.02,1.78,1.9.29,3.88.08,6.43.08-6.02-8.87-12-16.95-20.5-23.29,5.57-2.72,11.08-3.44,16.91-1.54,3.59,1.17,7.16,2.61,10.85,3.17,9.97,1.53,18.86-.46,25.02-9.34,5.45-7.86,3.04-22.19-4.56-27.46-1.99,8.71-6.76,13.73-14.14,14.89-8.1,1.27-15.93-2.45-20.14-9.57-3.26-5.5-3.39-12.73-.31-16.78,1.28.92,2.43,2.2,3.86,2.69,4.55,1.57,9.61-2.27,9.91-7.31.36-6.04-3.88-10.44-10.31-10.72-4.68-.2-8.08,1.2-13.16,5.44.01-2.43,2.25-6.18,5.14-8.61,3.66-3.08,8.06-4.36,12.66-4.42,12.8-.17,25.6-.08,38.41-.07.32,0,.65.14.93.21v102.84c-.19.19-.37.39-.56.58-9.15-14.06-24.18-17.16-38.6-21.53,3.16,7.05,11.93,12.48,19.41,12.64,1.45.03,2.85,2.15,4.84,3.77-6.2,2.64-10.89.6-15.78-2.32,2.76,8.08,7.64,13.52,15.31,16.66,3.45,1.41,6.83,3.3,9.81,5.54,5.94,4.48,7.04,10.73,5.49,18.26-6.15-10.67-15.61-17.24-24.61-24.33-2.88-2.27-5.53-4.92-7.94-7.69-2.41-2.77-4.4-5.9-6.75-9.12-.98,2.66-1.93,5.24-3.14,8.51,3.82,2.91,7.73,6.23,11.98,9.06,8.26,5.51,16.13,11.46,22.37,19.26,7.5,9.38,9.82,19.75,4.87,31.07-2.45,5.6-6.97,9.05-12.87,10.59-.89.23-1.89.03-2.84.03-.07-.25-.14-.51-.21-.76.94-.66,1.85-1.34,2.81-1.96,10.25-6.62,13.75-17.65,9.14-28.96-3.98-9.77-11.45-16.37-20.16-21.87,1.56,1.88,3.15,3.73,4.66,5.65,5.11,6.5,9.33,13.43,9.87,21.97.39,6.13-1.03,11.8-4.89,16.67-1.45,1.83-3.04,3.75-6.26,3.59.47-.98.79-1.72,1.17-2.43,5.61-10.62,4.8-21.57-3.14-30.42-5.9-6.57-11.07-13.55-15.44-21.17-.8-1.4-1.82-2.69-2.82-4.15-1.83,2.11-1.92,3.79-.42,6.22,8.68,14.08,14.07,29.38,16.14,45.8.84,6.72,1.4,13.48,2.13,20.58,1.14-.27,2.37-.47,3.54-.84,9.51-2.93,17.92-7.83,25.33-14.41,1.51-1.34,2.75-3.08,3.79-4.83.89-1.5.96-3.05-1.57-3.14-2.11-.08-1.95-1.26-1.06-2.58.37-.55.9-1.04,1.46-1.41,2.14-1.41,5.2-1.23,7.53.37,2.7,1.87,4.22,5.32,3.51,8.3-.67,2.79-2.05,5.02-5.33,5.72.1-.9.19-1.62.3-2.62-1.86,1.24-3.46,2.3-4.57,3.03,3.77.93,7.99,1.39,11.7,3.01,5.23,2.28,6.65,5.77,5.11,9.18,2.46,1.7,4.87,3.37,7.87,5.45-2.97,1.85-5.31,3.31-6.95,4.33-.52,2.01-.57,3.8-1.39,5.13-3.29,5.34-8.68,6.23-14.36,6.29-.94.01-1.87-.1-3.36-.18,2.28,1.77,4.17,3.23,6.44,4.99-.22-1.22-.37-2.05-.6-3.3,3.1,1.42,4.68,3.7,5.17,6.53.55,3.24-.91,5.92-3.58,7.75-2.29,1.57-4.84,1.7-7.32.39-.72-.38-1.37-1.06-1.83-1.75-1.15-1.73-.62-2.74,1.4-2.9,2.4-.19,2.76-.83,1.58-3-.45-.82-.95-1.68-1.62-2.31-7.8-7.36-16.35-13.39-27.32-14.94-1.32-.19-2.69-.03-4.3-.03Zm-83.77,86.8l-.07-.07c-.43,3.06-.45,5.92,3.62,6.6-.17,1.47-.3,2.74-.47,4.01-.06.49-.21.96-.37,1.63-.99-1.57-1.76-2.97-2.7-4.26-6.38-8.78-15.65-12.97-25.72-15.46-9.09-2.25-18.37-2.36-27.65-.98-.79.12-1.65-.25-2.29-.35-.62.57-1.24,1.13-1.99,1.81-.75-1.68-1.35-3.01-2.21-4.94-.51,2.7.53,5.23-2.18,6.37-.76-1.82-1.47-3.51-2.31-5.5-.53,3.35-.96,6.09-1.39,8.83-.24-.04-.48-.08-.72-.12-.71-2.73-1.41-5.46-2.12-8.18-.1.09-.2.18-.31.27-.41,3.1-.82,6.21-1.24,9.31-.23-.03-.46-.06-.68-.1l-2.04-8.36c-.1.07-.2.13-.3.2-.41,3.38-.83,6.77-1.24,10.15-.24-.03-.49-.06-.73-.08-.5-2.62-.99-5.24-1.49-7.86-.12.04-.25.07-.37.11-.5,3.13-1,6.25-1.5,9.43,1.2.36,2.73.53,3.95,1.24,2.48,1.44,5,2.94,7.09,4.86,1.05.96,1.81,1.6,3.21,1.44,5.63-.62,11.28-1.15,16.91-1.81,3.4-.4,6.79-.97,10.18-1.46l-.03-.85c-2.4-.13-4.79-.26-7.19-.39-.03-.36-.07-.72-.1-1.08,2.4-.5,4.79-1.15,7.21-1.48,9.44-1.26,18.46-.36,26.79,4.86,7.98,4.99,13.4,17.2,4.23,26.95-3.68,3.92-8.27,6.36-13,8.64-1.13.54-2.29,1.02-3.44,1.53-.06-.14-.11-.28-.17-.42,3.86-3.06,7.73-6.11,11.59-9.17-.06-.06-.12-.11-.17-.17-4.38,1.84-8.76,3.68-13.14,5.52-.13-.27-.26-.53-.39-.8,3.5-2.56,7-5.13,10.5-7.69-.06-.12-.12-.23-.18-.35-4.15,1.5-8.31,3-12.46,4.5-.13-.26-.26-.52-.39-.78,3.69-2.4,7.38-4.79,11.07-7.19l-.18-.26c-4.62,1.55-9.24,3.09-13.86,4.64-.11-.26-.23-.52-.34-.77,3.99-2.46,7.97-4.92,11.96-7.38-.02-.07-.04-.15-.06-.22-5.17,1.63-10.35,3.25-15.52,4.88-.12-.31-.24-.62-.36-.94,4.06-2.27,8.11-4.54,12.17-6.8-.02-.06-.05-.13-.07-.19-5.17,1.42-10.33,2.84-15.5,4.26-.12-.28-.23-.57-.35-.85,5.25-2.5,10.5-4.99,15.73-7.48-5.29-.53-23.34,4.31-27.81,7.53.76.35,1.43.72,2.13.98,5.28,1.98,10.06,4.75,14.33,8.47,3.94,3.44,6.05,7.6,5.89,12.86-.04,1.31-.12,2.63-.23,4.81,6.36-3.63,12.24-6.79,17.91-10.28,5.08-3.13,8.84-7.63,11.45-12.99,7.19-14.77,6.8-29.8-4.06-41.81-11.07-12.24-24.97-19.68-41.21-22.63-4.01-.73-8.11-.97-12.48-1.47,1.2-3.73,3.43-6.17,6.81-8.54-.66,1.81-1.09,3.01-1.53,4.2.11.03.23.07.34.1,2.04-2.3,4.08-4.6,6.55-7.4-1.03,3.08-1.77,5.3-2.52,7.52.15.09.3.19.45.28,1.52-1.64,3.05-3.29,4.57-4.93.13.12.26.24.4.37-.3,1.79-.6,3.58-.9,5.37.23.06.47.12.7.18.62-.78,1.23-1.57,2.29-2.92.61,1.84.96,2.89,1.18,3.57,2.07,1.56,3.91,2.96,5.76,4.36-4.78-6.78-8.53-13.74-7.56-22.54-8.06,3.97-13.75,9.9-17.66,17.48-1.06,2.05-2.2,2.56-4.32,2.52-19.67-.39-38.66,2.84-56.69,11.01-6.02,2.73-12.21,5.2-17.2,9.7-1.63,1.47-2.94,3.32-4.77,5.42,4.37.75,7.91,1.04,11.25,2.02,3.42,1,6.77,2.45,9.94,4.11,3.01,1.57,5.74,3.67,8.54,5.51-5.62,1.79-9.51-2.13-13.93-4.51,2.72,4.67,6.88,7.25,11.97,8.71-2.38.06-4.7,0-6.9-.57-5.15-1.34-10.21-2.99-15.35-4.37-1.82-.49-3.75-.55-5.62-.8-.2.36-.39.72-.59,1.08,1.44,1.43,2.68,3.21,4.37,4.25,11.1,6.78,23.3,8.94,36.12,7.85,5.25-.45,9.74-2.96,13.27-6.78,4.55-4.93,6.79-10.74,4.9-17.52-1.57-5.66-7.86-10.55-12.97-10.19,1.73,1.11,3.45,2.07,5.02,3.24,5.3,3.94,7.15,9.15,5.48,15.15-3.27,11.71-17.57,18.27-29.3,13.4,3.81-.37,7.59-.53,11.3-1.15,6.76-1.14,12.1-4.35,14.48-11.2,2.16-6.21-.8-12.66-6.38-14.09,3.48,11.36-1.24,20.04-9.96,18.3,5.54-2.01,8.02-4.8,7.87-8.85-.14-3.82-3.19-7.94-6.45-8.95.82,1.63,1.72,3.42,2.71,5.37-2.19-1.09-3.88-2.05-5.67-2.76-.52-.21-1.7.11-1.95.54-1.94,3.41-4.86,4.37-8.61,3.52,1.55,2.07,2.96,3.97,4.38,5.87l-.68.79c-5.94-6.74-13.94-8.65-22.32-10.13,13.7-9.51,28.74-15.48,44.91-18.68.13.25.26.5.39.75-1.72,1.14-3.45,2.27-5.17,3.41l.34.58c2.05-.97,4.13-1.87,6.13-2.93,1.94-1.03,3.52-.93,5.1,1.37-2.35,1.06-4.53,2.05-6.7,3.03,3.55,1.46,6.09-.65,8.88-2.43,1.13.86,2.25,1.7,3.28,2.47-1.73,3.4-4.71,1.76-7.74,1.94,1.15.94,1.72,1.81,2.31,1.82,2.3.03,2.71,1.71,3.54,3.3,1.55,2.97,4.64,3.46,7.06,1.2,1.01-.94,1.72-2.2,2.58-3.35,1.84,1.89,2.66,5.5,5.91,4.62,2.28-.62,4.17-2.69,6.31-4.17-.17-.24.05.03.22.32,3.22,5.46,6.53,5.52,10.14.23.24-.35.75-.52,1.14-.77.33.53.84,1.02.97,1.59.45,2.02,1.74,3.14,3.66,3.51,2.03.38,3.72-.31,4.96-2,.42-.57.81-1.17,1.49-2.16.42,1,.67,1.49.83,2.02,1.26,4.35,5.34,5.52,8.77,2.53.7-.61,1.49-1.12,2.24-1.68l-.03-.03c-.59,5.01,1.85,7.7,6.01,6.53.98-.28,1.86-.93,2.16-1.09,1.52,2.15,2.45,4.77,4.23,5.63,1.78.85,4.4-.06,6.61-.2-.58,4.84,1.16,6.97,5.52,6.37ZM96.04,169.12c-.09.4-.19.58-.16.72.1.41.25.82.41,1.21,6.92,17.36,17.13,32.49,31.14,44.9,14.33,12.69,30.56,21.84,49.57,25.49.81.16,2.09.15,2.51-.33,2.28-2.63,4.35-5.44,6.55-8.25-1.26-1.02-2.25-1.82-3.26-2.63-13.53-10.83-17.2-29.61-8.37-44.55,3.04-5.15,6.72-9.96,10.44-14.65,2.98-3.76,6.46-7.13,9.78-10.61.95-.99,1.18-1.74.09-2.77-4.8-4.53-9.56-9.1-14.91-14.21-1.64,2.76-3.61,4.96-4.29,7.51-.7,2.62-.16,5.57-.16,8.43-1.18.07-1.99-.03-2.69.21-.64.22-1.16.8-1.73,1.22.55.43,1.05,1.02,1.68,1.25.77.29,1.65.28,2.66.42,0,1.86.12,3.57-.02,5.27-.39,4.51-5.03,7.38-9.26,5.74-.45-.17-.91-.72-1.07-1.19-1.29-3.89-1.03-7.61,1.4-11.04.78-1.1,1.53-2.21,2.29-3.31-.14-.17-.27-.33-.41-.5-1.32.98-2.84,1.78-3.91,2.97-3.34,3.73-2.71,8.43-2.59,12.88q-5.52,1.12-5.14,3.1h4.11c1.1,1.01,1.78,2.13,2.4,2.09.77-.05,1.48-1.05,2.74-2.06,3.1.4,6.68-.17,9.59-3.19,2.99-3.11,2.48-7.09,2.66-10.57,2.33-1.39,5.53.94,7.16-2.77-2.65-.17-4.89-.32-7.51-.49,1.09-4.07-1.69-8.48,2.5-11.93,4.2,4.01,8.27,7.91,12.45,11.91-1.27,1.38-2.34,2.48-3.34,3.64-4.15,4.81-8.56,9.43-12.35,14.51-9.66,12.96-12.93,26.95-5.71,42.28.09.19,0,.46-.02.7-18.75-2.09-50.82-30.73-52.61-47.12,1.51-.18,3.03-.38,4.54-.55,13.15-1.48,25.09-6.2,35.23-14.59,7.19-5.95,13.58-12.87,20.31-19.36.71-.69,1.36-1.45,2.25-2.39,7.32,7.48,14.44,14.76,21.68,22.16-3.41,3.4-7,6.72-10.29,10.33-3.23,3.55-6.29,7.28-9.18,11.12-2.86,3.8-5.57,7.75-6.76,12.48,8.97-15.22,21.88-26.98,34.48-39.25-1-1.12-1.77-1.98-2.39-2.67-1.74,1.07-3.03,1.87-4.85,2.99.41-2.67,4.63-4.03.69-6.3-.67.63-1.24,1.29-1.94,1.76-.4.27-1.02.22-1.54.32.08-.53.03-1.12.26-1.57.39-.74.96-1.39,1.36-1.95-1.67-4-3.46,1.87-5.17-.29-.09-1.45,3.39-2.48.74-4.21-1.33.62-2.52,1.18-3.57,1.68.37-1.96.65-3.44.93-4.91-.25-.07-.5-.14-.75-.21-1.14.81-2.29,1.63-3.43,2.44-.25-.17-.5-.35-.74-.52.44-.83,1.01-1.61,1.28-2.49.21-.69.06-1.49.06-2.23-.68.07-1.4.03-2.03.25-.66.23-1.23.71-1.84,1.09-.2-.17-.4-.34-.6-.51.55-.99,1.1-1.98,1.65-2.97-2.6-3.61-3.64-3.6-6.65-.5-5.8,5.98-11.62,11.94-17.61,17.74-16.53,15.98-36.25,22.7-59.12,20.02-3.22-.38-6.43-.79-9.62-1.18Zm124.72,76.23c.03-.26.06-.53.09-.79-8.98-6.78-18.15-3.76-27.38.16,19.57-18.73,39.02-37.36,58.48-55.99.2.9.05,1.82-.48,2.34-13.41,13.19-26.86,26.34-40.32,39.47-2.55,2.49-5.17,4.89-7.76,7.34,2.73.06,5.25.4,7.34-1.7,13.75-13.82,27.64-27.5,41.35-41.36,3.98-4.03,7.53-8.48,11.28-12.74-.16-.16-.32-.31-.48-.47-1.79,1.3-3.54,2.66-5.39,3.87-.52.34-1.34.23-2.02.33.12-.69.04-1.52.4-2.04.83-1.19,1.86-2.24,2.82-3.34,1.17-1.34,2.35-2.68,3.53-4.02-.21-.21-.43-.42-.64-.63-1.92,1.53-3.79,3.13-5.8,4.54-.76.53-1.85.61-2.79.89.23-.88.23-1.92.72-2.61,1.28-1.8,2.78-3.44,4.19-5.15-.16-.15-.31-.3-.47-.45-2.4,1.97-4.8,3.94-7.19,5.92-.24-.24-.49-.47-.73-.71,1.27-2.69,2.53-5.39,3.8-8.08-.28-.16-.56-.33-.84-.49-1.01,1.55-2.14,3.04-3.01,4.67-3.38,6.32-7.43,12.08-12.45,17.27-8.18,8.45-16.03,17.22-24.01,25.87-.57.62-1.02,1.34-1.53,2.01,1.43-.47,2.46-1.23,3.36-2.13,6.7-6.66,13.43-13.29,20.02-20.06,4.53-4.65,9.91-8.56,12.82-14.67.24-.5,1.67-.43,2.55-.63.19.9.83,2.05.49,2.64-.63,1.12-1.84,1.91-2.79,2.86-8.88,8.86-17.68,17.79-26.66,26.55-7.43,7.24-15.2,14.13-22.56,21.44-7.79,7.75-15.32,15.77-22.88,23.74-6.07,6.4-12.84,11.8-20.47,16.31-15.22,9.02-28.32,20.56-39.25,34.51-.5.64-1,1.27-1.61,2.04-.44-.5-.75-.78-.97-1.12-.6-.94-1.2-1.88-1.73-2.86-6.59-12.27-10.3-25.47-11.69-39.22-2.06-20.38-.53-40.47,6.31-59.96.22-.64.3-1.62-.03-2.12-2.16-3.25-4.46-6.42-6.76-9.68-18.97,29.7-13.02,104.34,10.19,128.72.27-.34.57-.63.78-.98,9.28-15.14,21.28-27.78,35.43-38.4,6.32-4.74,13.11-8.89,19.13-13.97,6.28-5.3,11.94-11.34,17.79-17.14,5.23-5.19,11.31-8.89,18.36-11,5.05-1.51,10.12-1.85,15.22-.31,1.42.43,2.82.9,4.23,1.35Zm-82.04,140.72c23.47,21.39,57.7,38.67,97.96,36.73,33.61-1.61,62.15-15.05,87.31-36.68-3.36-.99-6.53-1.78-9.59-2.88-1.89-.68-3.22-.53-4.84.82-10.45,8.73-22,15.56-35.13,19.44-10.64,3.14-21.48,5.45-32.57,6.25-33.27,2.41-63.79-4.79-90.27-26.03-.65-.52-1.88-.79-2.69-.59-3.32.82-6.59,1.87-10.18,2.93Zm188.82-253.41c-50.04-51.23-135.59-58.17-193.05-.13,3.2,2.46,6.38,4.9,9.77,7.5,2.46-2.63,4.86-5.2,7.37-7.89-1.45-1.15-2.51-1.99-3.59-2.85,4.31-7.15,12.13-8.63,18.85-12.13,1.84,2.64,4.09,2.68,6.59.94.56-.39,1.22-.63,1.83-.94,24.61-12.39,50.51-16.13,77.61-11.35,12.35,2.18,24.19,5.97,34.84,12.76,2.33,1.48,3.9,1.5,5.85-.33.67-.63,2.05-1.17,2.81-.9,3.4,1.17,6.72,2.6,10.02,4.04,3.39,1.48,5.9,4,8.45,7.4-1.33.95-2.57,1.82-3.82,2.71,2.83,2.79,5.32,5.23,7.87,7.74,2.72-2.09,5.58-4.27,8.6-6.58Zm-14.51,79.98c-.26-.19-.52-.39-.77-.58,2.05-4.13,2.76-8.5,2.26-13.01-.88-7.84-4.51-13.81-12.03-16.91-3-1.24-6.06-1.21-8.93.49-2.3,1.37-3.47,4.12-2.25,6.14.68,1.13,2.28,1.69,3.47,2.51.5-.92.99-1.84,1.55-2.87,2.82.64,5.69,5.51,5.88,10.6.28,7.68-3.58,15.18-8.58,16.7-1.1-2.46,1.36-2.98,2.36-4.26,1.6-2.04,1.95-3.08,1.21-4.53-1.2,1-2.4,2-3.9,3.25-.22-2.37-.4-4.23-.58-6.08.23.14.46.28.69.42,1.77-2.08,3.66-4.08,5.17-6.33.18-.27-1.66-1.9-2.46-2.78-1.5,1.74-2.69,3.12-4.22,4.89-2.07-8.09-5.85-14.23-11.12-19.48-4.62-4.61-9.24-9.23-13.92-13.79-2.5-2.44-5.11-4.75-7.77-7.21-.82.88-1.43,1.53-2.13,2.28,5.36,5.11,10.64,9.9,15.63,14.98,4.13,4.21,8.83,8.24,11.68,13.25,6.26,10.99,6.54,23.16,4.07,35.31-1.3,6.43-3.35,12.7-5.04,18.99,27.51-8.96,73.97-57.62,75.29-79.12-15.1,1.19-28.84-2.08-40.1-12.76-.7.58-1.11.89-1.48,1.24-.35.33-.67.69-1.05,1.09,8.41,7.82,17.95,12.83,29.74,13.56-3.36,8.82-7.8,16.59-13.78,23.86v-8.19c4.63-.32,3.2-4.52,5.15-6.93-1.35-.33-2.23-.54-2.84-.69-.88,1.47-1.62,2.73-2.37,3.98-.88-1.04-1.09-1.78-1.31-2.51-1.51-4.9-4.15-9.03-8.31-12.11-2.23-1.65-4.7-2.54-7.49-1.89-2.37.56-3.66,2.18-3.81,4.58-.12,2.02.83,3.56,2.78,4.13.76.22,1.73-.28,2.6-.45-.13-.58-.34-1.16-.38-1.75-.05-.79-.28-1.98.12-2.3.58-.46,1.76-.6,2.51-.36,3.95,1.29,8.5,7.99,8.61,12.63-.95-.25-1.85-.46-2.73-.73-5.66-1.73-11.35-3.39-16.97-5.26-1.24-.41-2.45-1.36-3.31-2.37-1.15-1.35-2.34-2.23-3.93-1.16-1.49.99-1.34,2.61-.39,3.88.61.83,1.62,1.58,2.6,1.88,8.13,2.45,16.31,4.77,24.45,7.2.59.18,1.45.87,1.45,1.34.05,2.65-.12,5.31-.22,7.97-.24.03-.49.07-.73.1-2.56-4.36-6.29-7.42-10.74-9.58-1.61-.78-3.36-1.3-5.09-1.75-.43-.11-1.05.48-1.59.76.32.42.55.98.96,1.24,2.05,1.25,4.17,2.38,6.23,3.64,3.8,2.32,6.5,5.59,8.08,9.73.26.68.36,1.85-.02,2.27-3.99,4.34-8.1,8.58-12.17,12.85Zm-69.01,31.4c4.41-.32,8.03-1.1,11.52-.73,10.81,1.15,19.71,6.26,26.77,14.43,7.47,8.64,15.97,16.01,25.43,22.4,17.55,11.85,32.74,26.1,43.82,44.38.29.48.71.87,1.1,1.35,14.64-21.26,24.61-50.66,21.11-87.69-1.63-17.3-6.16-33.7-14.57-49.43-2.39,3.46-4.49,6.38-6.42,9.41-.35.54-.21,1.6.05,2.29,1.25,3.38,2.78,6.66,3.92,10.07,5.31,16,7.02,32.49,6.38,49.28-.63,16.6-4.15,32.48-11.91,47.28-.9,1.72-1.99,3.34-3.13,5.23-.5-.62-.75-.93-1-1.24-10.95-13.4-23.55-24.96-38.17-34.29-7.17-4.58-14.18-9.35-20.13-15.55-10.28-10.72-20.68-21.32-31.08-31.92-.88-.9-2.08-1.48-3.13-2.21-.21.27-.41.54-.62.81,2.01,2.44,4.02,4.89,6.26,7.61-5.39,1.74-6.55-4.07-10.37-4.9,2.54,5.01,6.29,8.26,11.71,8.43,3.94.13,4.9,3.17,6.96,5.26-1.22-.23-2.28-.74-3.36-1.18-5.86-2.43-11.84-3.63-18.02-1.28-1.04.4-1.89,1.31-3.13,2.21Zm29.97,49.06c.05.28.1.55.14.83,1.85.27,3.73.41,5.54.84,5.32,1.28,9.33,4.65,12.95,8.5,15.61,16.59,22.49,36.39,21.56,59.04-.1,2.45-.01,4.9-.01,8.13,5.7-2.28,11.13-4.31,16.46-6.61,7.21-3.11,13.47-7.58,18.15-13.98.6-.82,1.01-2.26.73-3.16-1.63-5.14-3.01-10.44-5.38-15.25-12.35-25.01-31.89-43.13-55.71-56.99-.29-.17-.67-.16-1.01-.23-.29.35-.58.69-.86,1.04.96.56,2.01,1.02,2.87,1.71,3.92,3.21,7.95,6.32,11.65,9.76,9.87,9.18,18.82,19.18,24.2,31.73,2.32,5.4,3.62,11.23,5.45,16.84.21.65.9,1.14,1.37,1.71.25-.67.79-1.39.7-2.01-.42-2.79-.85-5.61-1.58-8.33-3.1-11.58-9.84-21.07-17.48-30.02-.62-.73-1.23-1.46-1.85-2.2,9.96,8.3,18.37,17.86,24.95,28.99,4.34,7.35,8.31,14.84,9.77,23.38.13.78.3,1.96-.12,2.38-2.66,2.65-5.25,5.5-8.33,7.59-3.37,2.29-7.69.9-10.17-2.58-2.41-3.37-2.18-7.34.59-10.1,2.65-2.64,7.43-2.35,8.87.7.4.85-.12,2.14-.22,3.23-.85-.32-1.69-.68-2.55-.96-.96-.31-2.59-1-2.79-.72-.64.91-1.25,2.33-.98,3.3.76,2.71,4.45,3.56,6.84,1.72,2.13-1.64,3.2-3.79,2.6-6.55-.52-2.4-2.93-4.51-5.67-4.99-4.01-.7-7.52.91-9.63,4.45-2.02,3.39-1.83,8.33.87,11.35,1.66,1.87,3.86,3.26,6.1,5.1-4.91,1.98-9.95,4.01-15.44,6.22,0-1.74.03-2.83,0-3.93-.14-4.98.06-10-.51-14.93-2.25-19.45-9.99-36.29-24.63-49.62-3.42-3.11-7.45-5.29-12.13-5.81-1.74-.19-3.54.25-5.32.41Zm-127.61,73.28c-.29.19-.57.38-.86.58-5.05-2.11-10.09-4.23-15.74-6.6,6.21-2.43,9.27-6.31,8.83-12.33-.28-3.85-2.44-6.55-6.16-7.8-3.15-1.05-6.12-.75-8.58,1.72-1.81,1.82-2.31,4.03-1.3,6.39.98,2.31,2.78,3.7,5.36,3.79,2.6.1,4.67-2.07,3.91-4.16-.28-.75-1.16-1.41-1.93-1.79-.28-.14-1,.69-1.56,1.02-.66.39-1.57,1.17-1.97.97-.67-.34-1.42-1.3-1.44-2.02-.04-1.96,1.23-3.12,3.08-3.59,2.71-.69,5.76.8,7.1,3.44,1.61,3.16.92,7.06-1.69,9.44-3.27,2.99-6.19,3.27-9.77.95-8.08-5.25-8.66-6.86-5.77-15.9,4.22-13.19,12.03-24.25,20.89-34.6,3.29-3.84,7.27-7.09,11.13-10.79-1.16,1.57-2.2,2.91-3.16,4.31-3.46,5.01-7.18,9.87-10.26,15.1-3.78,6.41-6.3,13.36-6.55,20.93-.02.6.52,1.22.8,1.83.43-.56,1.17-1.08,1.26-1.69,1.48-9.68,5.17-18.46,10.5-26.61,7.51-11.45,16.6-21.41,27.64-29.58,1.91-1.42,3.54-3.22,5.3-4.84-.15-.16-.3-.32-.45-.48-12.78,7.03-24.28,15.69-34.35,26.32-12.16,12.83-21.9,27.03-26.98,44.19-.92,3.12-.37,5.14,1.66,7.34,9.08,9.89,20.92,14.63,33.72,18.48-.11-1.61-.29-2.87-.26-4.12.17-7.45-.34-15.01.74-22.33,2.21-14.98,9.33-27.91,19.08-39.33,3.77-4.42,7.83-8.79,13.92-10.1,1.84-.4,3.77-.36,6.29-.58-2.7-1.67-5.21-2.11-7.47-1.2-3.28,1.34-6.79,2.78-9.37,5.1-15.16,13.63-23.27,30.99-25.5,51.08-.64,5.75-.1,11.63-.1,17.45Zm139.87-187.11c.29-.27.58-.55.87-.82-6.96-7.24-13.92-14.47-20.88-21.71.2-.21.4-.42.6-.63,7.7,6.69,15.4,13.39,23.11,20.08.19-.21.38-.42.57-.63-.8-.99-1.52-2.05-2.4-2.95-5.81-5.96-11.67-11.88-17.47-17.85-.45-.46-.58-1.24-.86-1.87.71.2,1.6.18,2.09.62,4.86,4.23,9.61,8.57,14.48,12.79,2.35,2.03,4.87,3.87,7.31,5.79.36-.39.71-.78,1.07-1.17-7.42-7.15-14.84-14.3-22.28-21.47,1.67-1.59,3.2-3.05,4.76-4.53,7.79,7.01,15.46,13.91,23.13,20.81.21-.2.42-.4.63-.59-.69-.91-1.3-1.91-2.1-2.73-4.48-4.62-9-9.21-13.53-13.79-1.69-1.71-3.47-3.33-5.15-5.05-.27-.28-.24-.85-.34-1.29.52-.01,1.08-.16,1.53,0,.45.17.78.65,1.16.99,6.42,5.7,12.84,11.4,19.28,17.09.62.55,1.34,1,2.02,1.49.2-.24.41-.49.61-.73-7.04-7.35-14.08-14.7-21.12-22.05.16-.17.32-.34.48-.52,7.72,6.35,15.44,12.69,23.16,19.04.21-.25.42-.49.62-.74-7.61-7.52-15.22-15.04-22.39-22.12-8.03,7.67-15.64,14.94-23.6,22.55,8.41,7.52,16.51,14.76,24.61,22Zm-23.85,79.57c.17,2.04.26,3.18.35,4.33-1.05-.02-2.49.38-3.07-.15-.92-.84-1.33-2.28-1.84-3.51-.12-.28.24-.8.45-1.17,1.37-2.44,4.53-3.23,6.86-1.06,2.98,2.77,5.93,5.82,8,9.28,5.03,8.42,11.72,15.03,19.44,20.99,10.12,7.81,18.83,17.05,24.73,28.62,3.44,6.76,5.93,13.85,7.16,21.51,1.02-.18,1.89-.33,3-.52-.66-3.23-1.01-6.24-1.93-9.07-1.34-4.15-2.81-8.3-4.72-12.2-6.43-13.18-16.37-23.34-27.84-32.26-4.3-3.34-8.31-7.19-11.85-11.33-3.55-4.15-6.27-9-9.52-13.43-2.15-2.93-5.1-4.84-8.75-5.44-2.65-.43-5.42,1.01-6.72,3.35-1.3,2.35-1.15,5.21.39,7.02,1.7,2,4.21,2.63,7.02,1.75.54-.17,1.09-.33,1.49-.45,3.55,4.62,6.36,9.38,6.98,15.14.14,1.3.49,2.45,2.31,1.34-.47-1.61-.94-3.21-1.57-5.36,2.65,2.39,4.84,4.36,7.02,6.33l.64-.69c-1.31-1.64-2.7-3.23-3.93-4.93-3.3-4.6-6.46-9.31-9.82-13.86-1.1-1.49-2.64-2.64-4.27-4.22Zm-64.59,5.8c.42.18.8.34,1.18.49,3.23,1.33,6.02.56,7.66-2.11,1.45-2.35.81-5.51-1.54-7.66-2.96-2.71-7.66-2.73-11.24.53-2.56,2.34-4.89,5.09-6.72,8.04-4.26,6.85-9.26,12.99-15.56,18.05-2.88,2.31-5.8,4.57-8.59,6.98-12.36,10.69-21.38,23.63-26.01,39.4-.87,2.96-1.1,6.11-1.6,9.05,2.35.73,3.16.14,3.32-1.7.13-1.53.48-3.05.88-4.54,4.66-17.19,14.4-31.09,28.25-41.99,8.82-6.93,16.59-14.57,22.35-24.26,1.59-2.68,3.87-5.02,6.16-7.17,1.76-1.65,4.22-2.33,6.37-.72,1.01.75,1.85,2.33,1.88,3.56.02.87-1.33,2.29-2.3,2.52-1.12.27-2.49-.48-4.28-.92,1.27-1.05,1.87-1.55,2.47-2.05l-.46-.82c-.93.54-2.15.85-2.73,1.64-5.1,6.96-10.09,14-15.18,21.13,3.63-.36,4.19-4.4,6.96-5.9q-.19,5.33,1.31,5.92c.44-6.68,2.69-12.56,7.42-17.46Zm97.55-136.72c-1.8,1.68-2.96,2.77-4.18,3.91-3.01-2.55-5.87-4.96-8.85-7.49-10.69,10.8-21.17,21.38-31.8,32.12,1.53,1.28,2.55,2.12,3.56,2.96.49-.44.75-.66.99-.9,9.16-9.19,18.36-18.33,27.44-27.6,1.61-1.64,2.66-1.58,4.18-.06,3.35,3.33,6.78,6.59,10.22,9.81,4.54,4.25,9.14,8.45,13.68,12.63,1.88-1.86,3.43-3.4,4.25-4.22-6.5-7.05-12.94-14.05-19.5-21.17Zm-64.47-12.85c-7.36,7.64-14.59,15.15-21.69,22.53,7.24,7.34,14.62,14.83,21.21,21.51,7.75-7.19,15.46-14.35,23.46-21.77-7.78-7.54-15.15-14.68-22.98-22.26Zm100.75,139.16c8.36-8.76,16.09-16.84,23.88-24.99-1-1.1-1.66-1.82-2.42-2.64-8,8.32-15.77,16.41-24.02,25-3.84-4.1-7.51-8.03-11.11-11.88-3.02,1.82-3.08,2.02-1.06,4.01,3.33,3.31,6.7,6.58,10.89,10.69-5.01,4.59-9.73,8.91-14.58,13.34.98.91,1.65,1.53,2.05,1.91,4.23-4.04,8.35-7.9,12.38-11.86,1.3-1.28,2.14-1.46,3.54,0,3.56,3.72,7.32,7.24,11.01,10.84,3.48,3.4,6.98,6.79,10.69,10.4.67-.63,1.4-1.3,2.75-2.56-8.2-7.61-16.05-14.9-23.98-22.26Zm-225.04-24.83c8.07,8.25,15.95,16.3,24.27,24.8-7.88,7.72-15.42,15.09-22.93,22.44,1.76,2.57,2.04,2.66,4.05.7,3.25-3.18,6.4-6.47,9.63-9.67,3.82-3.79,7.67-7.53,11.82-11.6,4.52,4.6,8.95,9.1,13.58,13.81.78-.67,1.54-1.31,3.02-2.57-5.18-4.71-9.85-8.96-14.54-13.23,4.13-4.41,7.85-8.4,11.73-12.54-1-.78-1.69-1.32-2.49-1.94-4.03,3.98-7.86,7.76-11.32,11.19-8.19-7.73-16.39-15.48-24.57-23.2-.53.42-1.25,1.01-2.25,1.81Zm103.33-48.78c-.45.47-.98,1.03-1.43,1.5-2.86-2.49-5.44-4.75-8.03-7l-.64.65c2.18,2.58,4.29,5.21,6.56,7.71,1.16,1.28.91,2.01-.54,2.72-2.65-2.31-5.3-4.61-7.94-6.91l-.68.66c1.49,1.92,3.05,3.79,4.44,5.78.38.55.25,1.47.36,2.21-.74-.16-1.61-.11-2.19-.51-1.72-1.16-3.32-2.5-4.96-3.77-.17.19-.35.38-.52.57,2.32,2.58,4.59,5.22,6.99,7.73,4.33,4.53,8.71,9.01,13.14,13.44.6.6,1.62.79,2.45,1.17.28-.39.56-.78.84-1.17-4.66-5.08-9.32-10.15-14.1-15.36.45-.4.9-.8,1.29-1.15,4.87,4.76,9.1,9.9,15.04,13.28-.59-1.88-1.48-3.56-2.66-4.98-1.97-2.37-4.18-4.55-6.19-6.9-.38-.44-.31-1.27-.44-1.92,4.48,3.13,7.36,7.49,12.78,9.9-.36-1.29-.35-2.07-.74-2.49-3.09-3.3-6.28-6.49-9.36-9.8-.62-.66-1.25-1.7-1.17-2.5.06-.68,1.17-1.79,1.76-1.75.81.05,1.96.82,2.29,1.58,1.88,4.34,5.29,7.28,8.84,10.11.39.31.98.37,1.87.68-.3-.82-.34-1.28-.59-1.55-5.53-5.95-9.74-12.81-13.85-19.77-1.07-1.81-3.14-3.02-4.76-4.51l-.63.65c2.14,2.91,4.27,5.82,6.41,8.73-.21.23-.42.45-.63.68-4.23-.39-5.74-5.18-9.74-6.2,2.2,2.77,4.4,5.54,6.74,8.49Zm-58.71,26.86c8.34-3.6,13.52-11.01,13.47-18.98h-2.45c-.44,7.2-3.94,12.27-9.91,15.75-1.85-3.52,1.01-5.06,3.65-7.46-3.89.72-4.36-1.15-4.36-3.32,0-1.97.19-3.94.2-5.92.01-1.81.8-2.59,2.65-2.59,3.69-.01,7.38-.25,11.07-.23,1.76,0,2.47-.76,2.64-2.66h-16.36c.11-1.91-.17-3.67.37-5.11,1.34-3.53,3.06-6.92,4.84-10.82-7.35,3.59-14,8.79-22.45,9.54,6.2,3.34,11.02-.8,15.95-3-.61,3.08-1.21,6.15-1.87,9.52-1.41,0-3.03-.1-4.63.06-.54.05-1.01.76-1.51,1.17.5.43.96,1.18,1.5,1.23,1.59.17,3.2.06,5.11.06,0,3.88,0,7.38,0,10.89,0,.32-.11.65-.22,1.25h-5.8c-.88,2.4.42,2.69,1.97,2.46,2.79-.41,4.28.41,4.48,3.5.1,1.54,1.06,3.03,1.69,4.67Zm168.55,149.37c.38-2.6,1.02-5.17,1.09-7.75.69-25.52-10.66-44.87-30.86-59.54-3.68-2.67-7.98-4.05-12.62-3.7-2.43.19-4.89.58-6.7,3.03,5.86-1.42,11.33-1.23,16.16,2.02,14.86,10.02,24.58,23.94,29.1,41.14,2.1,7.98,2.59,16.38,3.84,24.79Zm-176.44-.84c.32-3.93.55-7.87.98-11.79,2.31-20.91,11.85-37.91,28-51.23,5.05-4.16,10.76-6.39,17.45-4.55.27.07.6-.04,1.02-.08-1.79-1.92-3.37-2.59-6.21-2.66-5.32-.14-9.87,1.87-14,5.03-13.9,10.66-23.34,24.38-27.47,41.42-1.91,7.87-3.05,15.98.23,23.87Zm24.31-226.68c-7.11,7.31-14.07,14.48-21.39,22.01,1.37,1.16,2.5,1.97,3.44,2.96,1.34,1.4,2.5,1.41,3.92.08,9.61-8.93,19.25-17.82,28.84-26.69-1.55-2.02-1.57-2.04-2.77-1.01-2.46,2.13-4.9,4.28-7.53,6.58-1.03-.89-2.63-2.29-4.52-3.93Zm95.8,59.47c-3.89,1.32-47.79,43.89-50.94,49.23,1.73-.42,3.43-.31,4.23-1.11,15.06-15.03,30.02-30.15,44.97-45.29.64-.65.98-1.58,1.74-2.84Zm-150.19-31.91c3.61,0,6.43.06,9.25-.04.66-.02,1.47-.43,1.93-.92,2.78-2.92,5.49-5.89,8.17-8.89.39-.44.82-1.25.66-1.69-1.02-2.79-2.19-5.52-3.49-8.68-6.26,6.09-11.42,12.66-16.53,20.22Zm117.82-107c2.35,3.88,4.48,6.9,6.08,10.18,1.55,3.19,2.56,6.65,3.85,10.12,4.13-11.42-4.15-18.09-9.58-25.96-9.87,11.73-13.01,20.25-9.82,24.49,2.94-5.85,6.04-12.01,9.47-18.83Zm.32,420.52c3.49-5.99,6.83-11.27,9.69-16.8,1.62-3.13,1.51-6.61-.13-9.26-2.94,5.9-5.99,12.01-9.04,18.13-.27,0-.54.01-.81.02-3.23-6.1-6.45-12.19-9.65-18.24-1.04,3.2-1.24,6.66.43,9.79,2.86,5.33,6.07,10.48,9.51,16.36Zm189.61-217.68c-2.91-9.25-12.52-12.25-18.14-6.35,2.36.41,5.09.59,7.61,1.42,2.49.83,4.74,2.66,4.86,5.46.12,2.6-2.34,3.8-4.32,4.99-.94.57-2,1.01-3.07,1.26-1.71.39-3.47.56-5.36.85,7.67,5.44,15.28,2.71,18.63-6.51,1.32-.11,2.64-.22,3.97-.33-.01-.2-.03-.4-.04-.59-1.33-.06-2.67-.12-4.15-.19Zm-362.3,8.3c-2.99-1.29-6.37-2.33-9.29-4.11-2.76-1.68-2.75-3.79-.74-6.3,2.2-2.75,5.19-3.83,8.6-3.95.86-.03,1.72,0,3.16,0-8.61-5.56-14.29-3.57-19.13,6.06-.67,0-1.36-.02-2.04,0-.59.03-1.18.12-1.77.18l-.37.77c4.03-1.02,5.01,1.44,5.76,4.17.04.16.17.3.26.44,3.11,5.23,9.76,6.23,15.55,2.73Zm234.52,12.88c-4.45-4.61-9.4-9.68-14.29-14.81-5.06-5.32-10.9-9.44-17.93-11.69-4.71-1.51-9.48-1.56-14.11.37-.99.41-1.77,1.34-2.65,2.04.14.21.28.41.43.62,8.4-3.28,16.07-1.41,23.2,3.35,5.53,3.7,10.4,8.15,14.11,13.76.37.57.72,1.3,1.27,1.57,3.57,1.79,7.19,3.47,9.96,4.79Zm-123.19-.39c2.78-1.26,6.1-2.76,9.41-4.3.36-.17.69-.54.87-.9,2.55-4.93,6.67-8.49,10.78-11.98,7.45-6.32,15.71-9.77,25.64-6.37.47.16,1.13-.24,1.71-.38-.32-.43-.55-1.04-.97-1.27-4.28-2.34-8.87-2.52-13.51-1.55-7.11,1.49-13.05,5.23-18.11,10.27-5.5,5.48-10.77,11.2-15.82,16.48Zm162.93-136.98c-1.22,3.64-2.16,6.36-3.02,9.12-.12.39.03,1.06.31,1.37,4.71,5.17,10.14,8.81,18.33,7.86-5.24-6.15-10.24-12.03-15.62-18.35Zm-16.28,117.89c-3.15-3.19-6.12-6.19-8.99-9.1-2.98,2.71-5.94,5.39-8.6,7.81,3.28,3.55,6.1,6.61,8.76,9.49,3.15-2.92,6.08-5.64,8.84-8.19Zm-162.38,8.19c2.92-2.99,5.77-5.9,8.79-8.99-2.69-2.82-5.45-5.71-8.31-8.71-3.12,3.24-6.06,6.28-9.36,9.7,2.43,2.29,4.91,4.65,7.42,6.99.43.4.97.67,1.46,1.02Zm77.73,108.13c2.5-8.15-.95-15.19-8.13-16.64,1.68,1.34,3.32,2.65,4.96,3.96-.12.19-.24.39-.36.58-1.69-.5-3.37-1-5.06-1.5-.03.11-.05.22-.08.33,2,1.57,3.99,3.14,5.99,4.71-.09.16-.18.33-.26.49-2.68-.9-5.37-1.81-8.05-2.71-.07.14-.13.28-.2.42,2.09,1.58,4.18,3.16,6.26,4.74-.2.31-.39.62-.59.93-4.76-2.63-9.52-5.27-14.31-7.86-.58-.31-1.32-.34-1.98-.5,5.57,7.36,13.65,10.1,21.79,13.04Zm136.09-231.44c-.08.21-.15.43-.23.64,1.15.95,2.18,2.17,3.48,2.8,8.99,4.33,17.91,4.18,26.54-.96,2.6-1.55,4.42-3.88,4.84-7.39-10.54,8.95-22.39,8.31-34.63,4.91Zm-144.03,109.61c2.52-.71,54.19-55.35,54.68-57.82-18.83,19.28-37.44,37.91-54.68,57.82Zm-64.28,129.45c11.5,12.69,41.34,23.12,55.61,20.29-.17-2.14-.18-2.2-1.81-2.11-11.61.63-22.55-2.19-32.93-7.02-7.28-3.39-14.19-7.56-20.87-11.16Zm-65.98-237.84c-6.12.3-12.08.9-18.04.8-6.13-.1-11.14-3.63-16.31-6.59,1.77,6.47,6.84,8.85,12.49,10.03,7.83,1.65,15.47,1.53,21.86-4.25Zm288.24-39.42c-.13-1.38-.71-2.8-.24-3.52,1.05-1.6,2.85-1.38,4.38-.52,1.99,1.12,3.21,2.81,3.18,5.2,0,.97,0,1.95,0,3.05,2.76-2.48,3.63-5.39,2.28-8.1-2.24-4.49-6.21-4.5-10.67-3.62.45-.91.66-1.68,1.13-2.23,1.58-1.87,3.26-3.67,4.85-5.44-5.79-.12-10.81,5.89-9.51,11.51.6,2.57,2.42,3.91,4.58,3.66Zm-300.37-8.18c-6.7-.22-9.68.95-10.93,4.51-1.04,2.96-.12,5.83,2.39,7.3-.42-3.14.04-6.13,3.01-7.6,1.23-.61,3.24-.05,4.7.49.39.14.06,2.21.06,3.58,1.61-.03,3.18-.91,3.85-2.7,1.12-3.01.61-5.92-1.37-8.48-1.97-2.55-5.21-4.06-7.37-3.61,1.86,2.14,3.76,4.32,5.67,6.51Zm131.06,198.84c-3.84-3.52-4.07,2-6.33,2.01-.2.25-.4.49-.61.74-1.36-1.85-2.72-3.71-4.16-5.68-.98,1.07-1.49,1.63-2.06,2.25,1.68,1.77,3.27,3.44,4.98,5.25-2.55,2.51-5.09,4.92-7.48,7.47-.55.59-.55,1.68-.81,2.54.85-.22,1.91-.2,2.51-.71,2.7-2.32,5.26-4.8,7.84-7.19,2.47,2.2,4.73,4.28,7.09,6.24.56.47,1.48.5,2.24.74-.28-.78-.36-1.74-.87-2.32-2.04-2.3-4.21-4.48-6.45-6.82,1.39-1.52,2.64-2.89,4.11-4.51Zm-3.29,89.55c-15.99-.19-31.05-4.01-45.28-11.2,7.09,8.07,37.49,15.79,45.28,11.2ZM391.44,79.98c.92.05,1.59.1,2.27.11,3.36.06,3.3.06,3.39,3.5.02.81.34,2,.92,2.34,2.1,1.25,4.37,2.22,6.59,3.3.79-3.12.62-5.67-2.81-7.15-2.04-.88-3.07-2.64-2.71-5.02.11-.74.02-1.5.02-2.41h-7.66v5.33Zm-320.38.03v-5.3h-7.73c-.04.95-.19,1.72-.09,2.47.3,2.39-.77,4.19-2.81,4.99-3.62,1.42-2.91,4.13-2.65,7.06,2.14-1.11,4.02-2.33,6.07-3.08,3.27-1.2.53-4.28,2.33-6.13h4.87Zm170.45,87.75c-.82-1.15-1.34-1.87-2.28-3.19-2.89,3.14-5.4,5.88-8.26,8.99-2.7-2.85-5.21-5.51-7.86-8.3-.69.8-1.28,1.48-1.55,1.79,3.44,3.53,6.75,6.92,9.62,9.86,3.45-3.05,6.96-6.16,10.34-9.15Zm22.7,27.3c-.39-.37-.77-.74-1.16-1.12-14.42,14.98-28.84,29.97-43.26,44.95,1.45-.4,2.69-1.18,3.7-2.19,13.26-13.43,26.49-26.89,39.72-40.34.38-.39.67-.87,1-1.3Zm-28.23,246.39c-.06-2.78-2.47-5.19-5.11-5.09-2.54.1-4.72,2.74-4.61,5.58.11,2.71,2.37,4.8,5.1,4.7,2.71-.1,4.67-2.3,4.61-5.19Zm-63.96-62.08c-.06.22-.12.44-.19.66,11.21,7.21,23.47,10.91,36.88,10.71.61,0,1.21-.63,1.81-.97-.67-.33-1.33-.93-2.01-.94-11.41-.26-22.17-3.2-32.55-7.77-1.31-.58-2.63-1.12-3.94-1.68Zm54.26-307.54c-.1,2.77,1.93,5.11,4.56,5.25,2.8.15,4.89-1.78,5.07-4.68.18-2.89-1.87-5.25-4.69-5.39-2.64-.13-4.84,2.02-4.95,4.82Zm11.27,194.7c-2.3-2.15-4.39-4.11-6.75-6.31-1.47,1.57-3.12,3.18-4.59,4.95-.41.5-.69,1.77-.38,2.11,1.81,1.97,3.8,3.77,5.75,5.64,2.07-2.21,3.92-4.2,5.96-6.38Zm-107.39-83.3c5.34.4,5.51.52,6.43,6.09.22,1.34.19,2.73.36,4.09.07.58.34,1.14.51,1.7.22.01.43.02.65.04.48-.91.95-1.83,1.48-2.84h6.2c-.99-1-1.42-1.84-1.92-1.89-3.79-.33-5.33-2.74-5.81-6.11-.23-1.56-.97-2.26-2.48-2.8-1.71-.61-3.19-1.86-4.78-2.81-1-.6-2.01-1.17-3.02-1.75-.15.19-.3.37-.45.56.89,1.79,1.78,3.58,2.84,5.72Zm-17.92,72.79c1.77-.48,4,1.28,4.81-1.81-3.41-1.47-5.62-3.79-4.85-7.95.09-.5-.91-1.2-1.4-1.8-.57.67-1.63,1.32-1.64,2-.11,4.72-.04,9.45.11,14.17.02.57.87,1.11,1.33,1.66.55-.57,1.47-1.08,1.57-1.71.24-1.49.08-3.04.08-4.55Zm241.16,6.46c0-4.78.1-9.38-.07-13.97-.05-1.28,1.11-3.6-1.2-3.73-2.61-.15-1.26,2.39-1.73,3.71-.39,1.11-.51,2.38-1.15,3.32-.85,1.25-2.07,2.23-3.14,3.33,1.33.53,2.66,1.06,4.55,1.82,1.22,1.09-2.46,5.37,2.73,5.53Zm-236.34,31.08c.03.36.02,1.41.24,2.41.12.53.65.96,1,1.44.43-.44,1.26-.89,1.24-1.31-.14-3.79.75-7.29,2.64-10.56.14-.24.02-.64.02-1.79-1.9,1.54-3.31,2.68-4.69,3.81-.75-1.17-1.53-2.38-2.54-3.95-.99,2.19-2.57,4.02-2.24,5.4.37,1.56,2.45,2.71,4.33,4.57Zm158.19,13.38c-.02,2.77,2.04,4.9,4.8,4.96,2.77.06,5.06-2.16,5.12-4.98.06-2.98-1.95-5.05-4.91-5.05-2.82,0-4.98,2.19-5,5.07Zm-74.67-25.37c5.14-11.81,15.59-19.5,22.61-29.87-.9.16-1.58.56-2.08,1.12-5.24,5.88-10.52,11.74-15.64,17.72-2.7,3.15-4.46,6.85-4.88,11.03Zm144.06,16.26c.22-.7.41-1.08.46-1.48.3-2.25.9-4.04,3.29-5.25,2.3-1.16,2.24-2.87.67-4.97-.49-.65-.85-1.4-1.3-2.15-.82,1.29-1.6,2.51-2.38,3.73-1.51-1.03-1.97-3.49-4.06-2.92.64,4.14,1.21,8.07,1.9,11.98.07.37.82.63,1.42,1.06Zm-166.87,8.76c-.03,2.78,2.08,5.08,4.7,5.12,2.83.05,5.23-2.17,5.28-4.87.05-2.69-2.34-5.11-5.06-5.13-2.71-.02-4.89,2.14-4.91,4.88Zm28.54,68.16c.04-.27.09-.54.13-.81-5.56-.6-11.17-.9-16.67-1.88-5.43-.97-10.74-2.62-16.11-3.97,10.26,5.57,20.99,8.6,32.64,6.66Zm26.96-97.31c-.72,1.23-1.26,2.14-2,3.41-1.01-1.28-1.76-2.25-2.62-3.34-1.18,1.74-2.25,3.33-3.38,4.99,1.08,1.19,2.08,2.31,3.18,3.53.99-1.26,1.79-2.28,2.65-3.38,1.05,1.32,1.88,2.35,2.36,2.96,1.44-1.15,2.67-2.13,4.03-3.22-1.42-1.66-2.73-3.2-4.23-4.95Zm2.37,23.24c1.07-1.3,1.75-2.12,2.3-2.79-2.42-2.37-4.66-4.56-7-6.86-1.96,2.07-4.12,4.36-6.4,6.77.75.94,1.37,1.71,2.06,2.58,1.66-1.57,3.18-3.01,4.84-4.59,1.43,1.67,2.65,3.09,4.2,4.89Zm49.83,61.9c.39-4.91-1.52-7.07-6.56-7.49,1.04.93,2.11,1.89,3.18,2.85-.15.25-.3.49-.45.74-5.15-2.04-10.31-4.07-16.14-6.38,5.9,6.03,13.27,7.49,19.97,10.27Zm-23.26-81.14l.68-.35c-1.53-2.9-2.68-6.09-4.66-8.63-4.16-5.33-8.74-10.33-13.18-15.44-1.58-1.82-3.26-3.55-4.89-5.32-.27.22-.54.43-.81.65.33.57.58,1.21,1,1.7,1.5,1.76,3.13,3.42,4.58,5.22,5.88,7.3,13.24,13.44,17.29,22.16Zm-78.01-89.21c.23,2.02,17.86,21.46,22.46,24.74.1-2.1-18.06-22.11-22.46-24.74Zm39.98,195.14c-2.61-.17-4.1.01-3.56,2.35.54,2.36,4.11,5.73,6.58,5.8.85.03,1.93-1.01,2.49-1.84.21-.32-.62-1.52-1.18-2.14-.93-1.04-2.02-1.93-3.04-2.9-.61-.58-1.19-1.18-1.29-1.28Zm-120.31,2.78c2.26,3.14,4.33,6,6.18,8.56,1.32-2.69,2.76-5.64,4.19-8.56h-10.37Zm116.97-6.24c2.26.58,4.27.73,5.23-2.14.23-.7,1.11-1.32,1.84-1.68,1.1-.54,2.18-1.2,1.3-2.4-.62-.83-1.97-1.68-2.93-1.61-3.49.24-6.09,4.15-5.44,7.83Zm127.63,6.15c1.48,2.9,2.88,5.67,4.24,8.33,2.04-2.69,4.1-5.41,6.32-8.33h-10.56Zm-135.58-179.78c.21-.18.42-.37.64-.55-.05-.32,0-.75-.18-.95-4.41-4.76-8.83-9.5-13.3-14.2-.3-.32-1.08-.2-1.63-.28-.12.23-.23.46-.35.69,4.7,5.33,9.36,10.69,14.82,15.29Zm25.3,176.8c-.25.26-.86.87-1.45,1.51-.85.92-1.54,2.1-2.56,2.73-1.14.7-2.14,1.19-1.38,2.67.71,1.39,1.78,1.95,3.4,1.33,2.51-.96,4.08-2.78,4.97-5.21.79-2.16.15-2.97-2.98-3.03Zm-5.43-8.61c1.86,1.97,3.48,3.69,5.41,5.74.83-.15,2.23-.4,3.6-.64-.26-3.54-2.25-6.14-5.26-7.12-2.66-.86-3.32-.42-3.75,2.03Zm-26.41-258.01c-2.42,2.47-4.73,4.73-6.9,7.12-.49.54-.48,1.54-.7,2.33.86-.22,2-.17,2.53-.71,1.59-1.66,2.94-3.56,4.39-5.36.26.28.52.56.78.83,1.27-.12,2.08,3.26,3.76.48-1.17-1.43-2.31-2.81-3.86-4.69Zm49.93.04c-1.22,1.32-2.28,2.32-3.14,3.47-.36.48-.29,1.29-.42,1.94.73-.06,1.76.16,2.12-.24,1.18-1.3,2.01-.82,2.97.18,1.31,1.35,2.61,2.72,4.03,3.95.36.32,1.14.15,1.73.21-.02-.65.23-1.54-.1-1.9-2.28-2.54-4.67-4.97-7.19-7.61Zm-66.38,100.35c1.75-.14,3.02-1.01,3.03-3.14.01-1.95-1.72-3.71-3.53-3.62-1.7.09-3.25,1.9-3.1,3.75.17,2.04,1.35,3.03,3.6,3.01Zm83.6-.08c2.03-.03,3.49-1.48,3.31-3.41-.18-2.01-1.47-3.17-3.39-3.16-2.01.01-3.04,1.42-3.14,3.37-.09,1.88,1.33,3.24,3.21,3.2Zm-27.16-104.73c.1,2.84,1.13,4.03,3.02,4.08,1.73.04,2.94-.88,3.05-2.78.1-1.82-1.43-3.65-3.11-3.26-1.23.28-2.25,1.46-2.97,1.96Zm-112.93,165.05c2-.93,2.05-1.89.81-3.1-1.47-1.43-2.87-2.95-4.37-4.36-.88-.82-1.9-1.49-2.85-2.22-.26.25-.52.5-.77.76,1.09,3.9,4.92,5.76,7.19,8.92Zm202.63-9.65c-.37-.08-.74-.17-1.11-.25-2.36,2.56-4.76,5.08-7.03,7.71-.32.38,0,1.31.02,1.98.58-.17,1.33-.17,1.7-.54,2.12-2.09,4.22-4.21,6.16-6.47.44-.51.19-1.6.25-2.43Zm-14.36-73.29c-.83-1.87-1.44-3.51-2.29-5.02-.23-.41-1.14-.43-1.74-.64-.18.61-.55,1.23-.51,1.83.07,1.27.43,2.52.52,3.79.11,1.55-.05,3.49,1.98,3.48.66,0,1.3-2.12,2.05-3.44Zm-105.37-80.25c-.26-2.78-1.31-3.9-3.21-3.85-1.92.05-3.02,1.32-2.95,3.15.07,1.89,1.45,3.11,3.25,2.75,1.2-.24,2.19-1.51,2.91-2.05Zm119.36,169.15c2.62-2.51,5.14-4.92,7.7-7.38-1.7-2.56-2.94-.57-4.07.41-4.78,4.13-5.24,5.08-3.63,6.97Zm-207.13-1.58c-2.52-2.6-4.92-5.08-7.33-7.56-.27.06-.54.13-.82.19,0,.78-.33,1.82.06,2.29,1.91,2.35,4,4.54,6.14,6.91.81-.77,1.35-1.28,1.94-1.84Zm201.56-116.68c-.25.88-.47,1.64-.68,2.35,5.15,2.5,9.11,2.62,10.51.24-3.18-.84-6.31-1.66-9.83-2.59Zm-.11,60.61c-1.64,1.78-1.67,1.81-.55,3.04,1.38,1.52,2.76,3.04,4.27,4.41.46.42,1.38.32,2.09.46-.04-.73.2-1.71-.18-2.14-1.74-1.97-3.65-3.78-5.63-5.77Zm-129.26,39.26c-3.52,1.83-7.1,10.11-5.84,14.01,2.01-4.81,3.89-9.34,5.84-14.01Zm121.79,4.96c2.54-2.09,5.09-4.19,7.63-6.28-.1-.31-.21-.62-.31-.94-.86.08-1.99-.15-2.54.3-1.7,1.4-3.16,3.08-4.74,4.63-1.29,1.28-.81,2.18-.04,2.28Zm-107.25,12.71c1.74,1.42,2.65,2.71,3.78,2.94,1.66.34,2.71-.99,2.77-2.65.06-1.73-.75-3.28-2.65-3.01-1.12.16-2.09,1.4-3.9,2.72Zm119.24-60.09c1.84,1.53,3.73,3,5.51,4.6,1.34,1.2,2.18.81,3.39-1.1-1.76-1.63-3.6-3.17-5.34-4.81-1.19-1.12-2.05-.99-3.56,1.32Zm-87.95,60.83c0-.4-.01-.81-.02-1.21-1.14-.75-2.23-1.99-3.44-2.13-1.75-.21-2.42,1.37-2.41,2.96,0,1.76,1.13,2.9,2.77,2.57,1.14-.23,2.08-1.43,3.11-2.19Zm15.2-17.58c2.12,4.32,4.2,8.57,6.29,12.82.65-5.23-2.88-11.76-6.29-12.82Zm-16.6,130.7c4.5-1.15,8.45-2.16,12.4-3.17-2.66-.54-5.15-.33-7.59-.6-2.41-.26-3.71.7-4.81,3.76Zm-61.1-71.8c-1.68.13-2.75,1.22-2.86,3.07-.1,1.65,2.1,3.72,3.73,3.53,1.86-.22,2.87-1.39,2.87-3.28,0-1.83-1.66-3.36-3.73-3.31Zm-51.9-61.42c2.73,2.62,5.1,4.89,7.47,7.17.22,0,.45.01.67.02-.05-.82.21-1.93-.22-2.41-1.94-2.12-4.08-4.06-6.23-6.15-.48.38-.98.79-1.69,1.37Zm98.95,115.02c-1.35,1.59-2.61,2.42-2.79,3.44-.31,1.72,1.2,2.78,2.69,2.55,1.07-.16,2.74-1.42,2.75-2.2,0-1.03-1.35-2.06-2.65-3.8Zm-96.6-138.79c1.89-1.98,3.59-3.77,5.39-5.66-.69-.73-1.26-1.34-2.07-2.18-1.78,2.05-3.43,3.95-5.12,5.9.66.72,1.12,1.21,1.8,1.95Zm107.68,33.79c.38.02.75.04,1.13.05.71-.96,2.07-1.99,1.97-2.86-.11-.97-1.53-1.8-2.38-2.69-.85.9-2.16,1.7-2.41,2.74-.18.74,1.07,1.82,1.68,2.75Zm80.26-39.44c1.65,1.57,3.26,3.19,4.99,4.65.36.31,1.21.04,1.83.04-.06-.59.08-1.33-.23-1.73-.93-1.21-2.1-2.24-3.07-3.42-1.33-1.61-2.38-1.21-3.52.45Zm-197.76-13.09c-1.78,2.15-3.26,3.95-4.79,5.8.59.68,1.02,1.18,1.61,1.86,1.75-1.86,3.4-3.62,5.04-5.37-.64-.79-1.11-1.37-1.86-2.29Zm97.84,50.39c.02-.37.04-.73.07-1.1-1.03-.79-1.99-2-3.12-2.19-.58-.1-2.05,1.62-2.05,2.53,0,.83,1.33,2.21,2.23,2.35.85.14,1.92-1.01,2.89-1.59Zm33.51-23.09c-3.12.47-5.58.84-8.5,1.29,1.68,1.76,2.83,2.97,3.92,4.11,1.33-1.56,2.66-3.13,4.58-5.39Zm-123.03-19.35q-2.01-1.93-4.9,1.21-2.2,2.4-.12,4.2c1.67-1.8,3.35-3.61,5.02-5.41Zm81.27,20.91c-.07-.27-.13-.53-.2-.8-2.34-.22-4.67-.44-7.01-.66.57,1.26,1.29,1.85,1.93,2.51.69.71,1.32,1.48,2.08,2.35,1.13-1.21,2.16-2.3,3.19-3.4Zm36.77,136.42c1.97.3,3.81.64,5.66.8.49.04,1.03-.5,1.54-.77-.4-.52-.73-1.38-1.22-1.49-1.8-.41-3.65-.57-5.62-.85-.13.84-.23,1.48-.36,2.31Zm92.65-171.01c-1.89,1.92-1.08,3.51,3.08,6.33,1.86-2.19,1.74-2.44-3.08-6.33Zm-225.6.19c-1.47,1.62-2.58,2.83-3.73,4.09.71.93,1.27,1.65,1.96,2.56,1.3-1.58,2.45-2.98,3.74-4.55-.7-.74-1.2-1.28-1.97-2.09Zm46.03-13.63c-4.08,1.17-4.66,1.84-4.76,4.34,1.66.87,3.15,1.65,5.04,2.64-.69-2.35-3.25-4.3-.28-6.98Zm235.65-51.16c1-1.52,2.02-2.39,1.96-3.19-.06-.78-1.22-1.47-1.9-2.21-.7.73-1.89,1.4-1.98,2.2-.09.77.94,1.67,1.92,3.19Zm-333.69-3.4c-1.39-.99-2.28-2.09-2.94-1.97-.77.14-1.88,1.39-1.84,2.09.05.76,1.19,1.89,1.99,2.02.63.1,1.47-1.07,2.79-2.15Zm106.4,16.75c-1.37-.98-2.13-1.85-3.02-2.02-.43-.08-1.68,1.35-1.54,1.78.24.77,1.16,1.62,1.96,1.83.53.14,1.34-.77,2.6-1.59Zm-16.01,25.83c.9-1.11,1.95-1.92,1.81-2.35-.23-.73-1.15-1.59-1.89-1.71-.49-.08-1.57.99-1.65,1.64-.07.58.87,1.28,1.73,2.42Zm113.24-69.67c.82-1.15,1.64-1.81,1.67-2.51.02-.5-1.17-1.56-1.54-1.45-.71.22-1.49,1-1.72,1.72-.13.41.77,1.15,1.58,2.24Zm-74.55-2.21c-1-.83-1.64-1.77-2.18-1.71-.69.07-1.3.95-1.94,1.48.56.55,1.07,1.45,1.71,1.55.59.09,1.31-.67,2.41-1.32Zm51.53,112.37c-.14.15-.29.3-.43.45,1.33,1.09,1.39,3.86,4.79,3.1-1.73-1.41-3.04-2.48-4.36-3.55Zm-46.26-119.53c-.64.95-1.38,1.57-1.28,2.01.12.54.95,1.32,1.44,1.29.5-.03,1.28-.85,1.34-1.4.05-.45-.75-1.01-1.5-1.9Zm37.03,135.92l.87-.79c-.97-1.06-1.94-2.12-2.91-3.18-.28.26-.57.51-.85.77.96,1.07,1.92,2.13,2.88,3.2Zm-172.03,3.25l.11-.39c-2.13-.1-4.26-.2-6.4-.3l-.03.7h6.32Zm194.31-137.33c1.23.74,1.85,1.34,2.54,1.44.37.05.87-.75,1.31-1.17-.58-.46-1.11-1.1-1.77-1.3-.39-.12-1,.46-2.08,1.02Z"/><path class="b" d="m363.2,416.11c-3.43-3.65-3.51-10.59-.28-16.79,3.68-7.09,12.01-11.17,20.19-9.89,7.87,1.23,12.31,6.08,14.02,15.65.88-.99,1.66-1.74,2.29-2.59,3.93-5.32,5.7-11.32,5.25-17.9-.62-9.02-7.51-15.72-17.57-17.41-6.63-1.11-13.08-.48-19.16,2.29-6.7,3.04-13.24,2.87-20.06-.03,6.63-4.65,12.55-9.98,17.42-16.37,1.86-2.45,3.73-4.98,5.04-7.74,4.02-8.5,10.43-14.8,17.75-20.39,6.21-4.75,12.52-9.41,17.33-15.69,1.6-2.09,3.05-4.3,4.59-6.49,2.32,6.74,0,14.58-6.07,19-2.87,2.09-6.18,3.78-9.53,4.97-7.58,2.69-11.6,8.38-14.31,15.48,2.42-.82,4.75-1.76,7.16-2.38,1.2-.31,2.66-.35,3.8.05.91.32,2.3,1.91,2.13,2.23-.59,1.13-1.87,2.86-2.7,2.76-6.88-.8-11.69,2.56-15.91,7.32-1.01,1.14-1.96,2.34-3.25,3.91,13.98-3.9,28.16-6.16,37.19-18.7.29-.41.68-.74,1.51-1.63v103.81c-.11.08-.18.17-.25.17-13.9-.11-27.83.18-41.71-.5-7.02-.34-12.66-4.16-15.26-11.28-.15-.4-.23-.82-.3-1.24-.02-.15.09-.32.23-.73,1.02.86,1.93,1.69,2.91,2.45,4.3,3.32,9.09,4.47,14.29,2.66,5.84-2.04,8.31-8.73,5.31-13.94-2.82-4.89-8.22-5.43-12.05-1.05Zm39.6-46.33c-.21-4.13-2.69-6.58-5.82-8.24-8.06-4.28-16.45-4.26-24.87-1.12-1.58.59-2.93,1.77-4.39,2.68.08.25.17.51.25.76,12.28-2.08,24.4-3.29,34.83,5.93Zm-22.26,40.42c.25-.21.5-.42.75-.63,5.31,1.58,8.31.97,10.08-2.05,1.51-2.57,1.02-5.24-1.38-7.56-.41,1.45-.66,2.97-1.25,4.34-1.01,2.34-3.66,3.45-5.76,2.51-2.33-1.05-1.82-2.78-.51-4.65-3.96.85-5.87,4.42-4.97,8.52.95,4.31,5.35,7.43,8.94,6.68-1.89-2.3-3.9-4.73-5.91-7.17Zm16.67,14.75c-2.23.11-3.91.19-5.7.28v5.29h7.4q.64-5.25,5.51-8.79c.38-.28.65-.97.64-1.46-.03-1.49-.23-2.98-.4-4.84-3.38,2.79-9.55,2.6-7.45,9.51Zm5.46-70.48c-1.27-1.21-1.97-2.39-2.69-2.41-.76-.01-2.08,1.02-2.17,1.72-.09.7.91,2,1.67,2.21.68.19,1.67-.75,3.19-1.53Z"/><path class="b" d="m114.59,369.36c-6.48,2.98-12.85,3.29-19.44.51-6.09-2.57-12.46-3.71-19.13-2.75-13.82,2-21.2,13.72-16.91,26.97,1.78,5.5,3.83,8.94,6.59,10.9.78-8.7,5.45-14.11,13.97-15.43,8.32-1.29,15.13,1.84,19.63,8.99,3.5,5.55,3.93,11.53.95,17.56-.39-.08-.6-.05-.69-.15-3.48-3.48-6.42-3.89-9.7-1.34-3.77,2.94-4.82,8.2-2.4,11.98,3.79,5.91,11.83,7.16,18.2,2.75,1.58-1.09,3.01-2.41,4.5-3.62.23.13.47.27.7.4-.74,1.71-1.24,3.59-2.27,5.1-3.12,4.52-7.48,7.28-12.94,8.09-2.37.35-4.78.57-7.18.58-11.17.06-22.33.03-33.5.02-.75,0-1.51-.07-2.44-.12v-104.01c.9.87,1.46,1.29,1.87,1.83,6.22,8.31,14.65,12.98,24.64,15.24,3.91.88,7.73,2.12,11.64,3.2-3.89-6.92-11.14-12.62-18.55-11.25-.84.16-2.06-1.74-3.11-2.69.71-.72,1.42-2.04,2.13-2.04,2.77-.01,5.56.31,8.31.69.94.13,1.81.8,3.08,1.39-2.94-7.32-6.93-12.92-14.51-15.35-2.9-.93-5.74-2.35-8.28-4.05-6.9-4.62-8.6-11.37-7.13-19.62.88,1.29,1.57,2.36,2.31,3.4,5.29,7.47,12.26,13.15,19.6,18.46,6.74,4.87,13.24,10.17,16.53,18,3.6,8.56,9.82,14.79,16.5,20.75,2.22,1.98,4.64,3.72,7.02,5.61Zm-20.27-5.67l.1-.7c-1.22-.76-2.38-1.66-3.68-2.24-5.91-2.64-12.1-2.93-18.38-1.83-3.88.68-7.4,2.2-10.17,5.1-1.53,1.6-2.73,3.4-2.17,6.25,10.09-10,22.21-8.22,34.3-6.58Zm-18.25,53.75c5.2-.05,8.85-3.09,9.41-7.86.41-3.44-1.44-6.32-4.27-7.1-.07,1.15.28,2.69-.34,3.44-.66.8-2.27,1.26-3.39,1.14-2.35-.23-3.75-1.93-4.46-4.11-.3-.91-.36-1.91-.55-2.97-2.22,2.26-2.82,4.77-1.55,7.06,2.52,4.51,6.6,3.94,10.79,2.86.16.24.31.48.47.72-2.05,2.29-4.1,4.57-6.13,6.84Zm-5.06,7.42h-5.52c0-1.39.1-2.49-.04-3.57-.08-.67-.33-1.61-.82-1.89-2.19-1.24-4.49-2.3-6.96-3.52v5.61c4.33,1.3,6.05,4.59,5.42,9.14h7.92v-5.77Zm-8.06-73.98c-.95,1.54-1.98,2.47-1.85,3.19.13.76,1.29,1.62,2.15,1.85.39.1,1.66-1.22,1.63-1.86-.03-.84-.95-1.65-1.94-3.18Z"/><path class="b" d="m72.28,124.4c2.31,3.26,5.08,4.62,8.2,4.52,3.38-.11,6.72-1.03,10.09-1.51,2.77-.39,5.56-.77,8.35-.89,1-.05,2.04.66,3.64,1.23-8.32,2.51-15.6,6.76-24.1,5.37-2.42-.4-4.92-1.01-7.09-2.1-6.8-3.41-9.57-11.73-6.49-19.13.35.28.71.49.96.78,6.2,7.1,14.1,9.17,22.87,6.75,9.06-2.5,15.24-8.51,17.5-17.85,1.34-5.56,1.3-11.15-2.43-15.99-.96-1.25-2.28-2.34-3.66-3.11-1.71-.96-3.37-.87-4.65,1.14-.43.68-1.74.8-2.64,1.17-.31-.99-1-2.03-.86-2.95.31-2.05,2.91-3.7,5.54-3.85,4.39-.25,7.62,1.83,9.96,5.31,1.37,2.04,2.43,4.29,3.62,6.42,5.25-11.71,13.88-19.39,26.71-21.82,7.83-1.48,15.4-.38,22.58,3.1,6.05,2.94,12.24,5.43,18.99,6.21,6.44.74,12.72.39,18.55-2.75,3.17-1.7,5.54-4.11,5.67-7.99.09-2.56-1.57-5.11-3.84-5.86-2.31-.76-4.4-.42-6.07,1.53-1.67,1.95-1.41,3.71,1.04,6.77-4.39,6.47-15.98,6.72-26.2.46,4.28-4.56,9.67-4.59,15.42-3.8-.34-1.62-.77-2.99-.89-4.38-.78-9.34,7.4-16.26,17.01-14.45,10.96,2.06,15.96,14.19,9.62,23.35-5.24,7.57-12.85,10.54-21.68,10.94-9.32.41-18.33-.91-26.77-5.16-1-.5-2.03-.93-3.06-1.36-2.8-1.16-4.78-.65-6.01,1.55-1.02,1.82-.37,3.66,1.98,5.47,3.24,2.5,7.13,2.92,10.98,3.08,4.89.21,9.79.06,14.69.09,1.07,0,2.13.1,3.39.69-.22.11-.43.24-.66.32-9.9,3.83-19.92,7.21-30.76,6.06-2.21-.23-4.48-1.16-6.44-2.26-1.7-.95-2.8-2.87-1.72-4.85,1.04-1.9,2.96-1.25,4.63-.79.55.15,1.08.38,1.76.63-1.45-4.66-4.32-6.53-7.93-5.37-3.64,1.16-5.84,5.64-4.59,9.44.99,3.02,3.15,4.85,6.15,5.71,1.23.36,2.52.52,3.76.88.44.12,1.13.57,1.11.82-.04.48-.45,1.26-.81,1.33-3.15.58-6.31,1.07-9.49,1.48-.71.09-1.47-.26-2.54-.47v6.81c-4-2.41-5.25-5.75-5.29-9.49-.04-3.61.47-7.23.73-10.84-2.93,2.97-5.01,6.46-5.23,10.91-.24,4.77,2.1,7.91,7.2,10.05-3.85,1.7-8.27.43-9.54,5.65-2.01-6.05-6.01-10.39-5.19-16.34-2.23,4.66-4.13,9.36-1.84,14.55,2.02,4.58,6.45,6.32,11.68,4.67,4.69-1.48,7.91-4.78,10.24-8.92,1.11-1.96,2.34-2.93,4.63-2.68,1.73.19,3.5.04,5.26.04.2.27.4.54.6.81-.54.24-1.17.38-1.6.74-8.43,7.18-16.82,14.41-25.26,21.59-4.7,4-9.09,4-13.92.11-.8-.65-1.59-1.31-2.37-1.99-3.32-2.89-7.09-3.65-11.3-2.46-.5.14-1.02.19-1.5.37-6.47,2.53-13.1,3.95-20.69,2.49Zm41.72-9.61c-1.4-2.87-2.75-5.62-3.99-8.15-1.89,2.64-3.89,5.41-5.86,8.15h9.84Z"/><path class="b" d="m278.47,65.61c5.77-.91,11.05-.73,15.52,3.29-6.4,5.6-16.79,6.66-23.66,2.51-2.53-1.53-2.57-1.84-.88-4.1,1.32-1.77,1.03-3.57-.27-5.21-1.53-1.94-4.34-2.44-6.54-1.24-3.78,2.05-4.63,7.67-1.52,10.87,3.89,4,8.96,5.23,14.28,5.66,7.26.59,14.15-.85,20.85-3.68,4.81-2.03,9.63-4.31,14.68-5.45,16.1-3.64,32.78,4.81,40.09,19.82.26.54.52,1.07.8,1.66,1.24-2.31,2.29-4.63,3.66-6.75,2.64-4.09,7.5-5.86,11.9-4.55,2.27.67,4.02,2.68,3.56,4.36-.21.76-.93,1.66-1.63,1.92-.5.19-1.67-.4-2-.96-1.29-2.14-3.06-2.03-4.92-1.21-2.77,1.23-4.3,3.61-5.34,6.32-4.06,10.58,1.53,23.56,12.35,28.78,9.62,4.65,20.95,3.49,27.92-5.5.14-.18.41-.25.63-.37,3.41,9.93-.92,17.36-8.17,19.96-5.52,1.98-11.11,2.11-16.69.37-4.06-1.26-8.05-2.72-12.21-4.13,2.91-2.23,6-1.95,9.28-1.22,3.99.89,8.02,1.78,12.08,2.12,3.1.26,5.73-1.34,8.03-4.25-1.09.09-1.7.13-2.32.19-5.56.57-10.98.02-16.16-2.2-6.21-2.68-11.64-2.05-16.79,2.81-4.89,4.61-9.94,4.4-14.99.09-8.37-7.13-16.69-14.32-25.02-21.49-.37-.32-.66-.74-1.03-1.15,4.03-1.23,7.39-.09,9.72,2.88,2.98,3.8,6.18,7.46,11.15,8.71,6.96,1.75,11.93-1.93,12.4-9.08.22-3.35-1.17-8.06-3.49-10.81,1.64,6.55-2.74,10.93-4.17,16.21-1.35-1.19-2.52-2.67-4.05-3.43-1.54-.76-3.43-.81-5.41-1.46,4.67-2.46,7.43-5.84,6.67-11.3-.56-4.02-2.58-7.16-5.28-9.9.35,3.64,1.06,7.25.93,10.82-.13,3.57-1.31,7-4.96,9.72-.14-2.61-.24-4.68-.35-6.72-2.44.17-4.79.51-7.12.44-2.27-.07-4.54-.55-6.19-2.89,2.41-.74,4.58-1.23,6.61-2.05,3.76-1.51,5.66-4.4,5.45-7.9-.21-3.52-2.6-6.55-5.64-7.17-3.15-.64-5,.64-7.25,5.13,1.18-.28,2.2-.62,3.24-.76,2.7-.38,4.43,1.68,2.95,3.92-1.12,1.7-3.2,3.62-5.04,3.84-4.88.58-9.98.98-14.79.2-6.96-1.14-13.74-3.38-20.59-5.14.05-.38.1-.77.14-1.15.94-.07,1.88-.18,2.82-.19,5.75-.06,11.51.12,17.25-.23,2.76-.17,5.57-1.06,8.17-2.09,3.47-1.37,4.83-4.04,3.71-6.32-1.19-2.42-3.75-2.83-7.24-1.51-5.2,1.97-10.36,4.25-15.74,5.49-7.96,1.83-16.11,1.69-23.87-1.22-6.93-2.6-11.68-7.51-13.07-15.03-1.33-7.19,3.5-14.89,10.25-16.71,7.74-2.08,15.32,1.44,17.83,8.3,1.09,2.98,1.01,4.9-.49,10.14Zm80.17,49.36c-2.18-2.83-4.23-5.49-6.12-7.95-1.22,2.51-2.49,5.13-3.85,7.95h9.97Z"/><path class="b" d="m97.91,337.79c-7.75-5.77-15.49-11.56-23.26-17.32-7.4-5.48-13.93-11.75-18.16-20.06-3.23-6.33-4.41-13.03-2.28-19.96,1.94-6.3,6.17-10.63,12.4-12.83,1.31-.46,2.82-.35,4.24-.51.08.31.16.62.24.93-.66.44-1.32.9-1.99,1.32-10.63,6.58-14,16.32-9.25,27.87,3.84,9.35,10.78,16.07,19.47,21.14-1.62-2.04-3.28-4.04-4.86-6.11-4.47-5.88-7.87-12.2-8.74-19.74-1.04-8.99,2.85-17.78,10.63-21.98-.21,1.41-.11,2.48-.52,3.28-6.27,12.27-5.06,21.85,4.31,32,5.99,6.48,10.96,13.64,15.21,21.34,1.9,3.43,3.18,7.01,2.56,10.61Z"/><path class="b" d="m363.95,338.01c.68-2.68,1-5.52,2.11-8.01,4.19-9.41,10.1-17.7,17.11-25.24,8.6-9.25,9.93-19.62,4.09-30.76-.4-.77-.59-1.65-.87-2.48.21-.2.41-.4.62-.59,1.16.71,2.48,1.23,3.44,2.15,6.13,5.86,7.65,13.15,6.37,21.25-1.34,8.48-6.14,15.16-11.32,21.63-.54.67-1.1,1.32-1.63,1.99-.08.1-.05.3-.1.68,9.28-5.89,16.55-13.28,19.91-23.82,3.23-10.14-.31-19.22-9.31-24.93-.9-.57-1.77-1.21-2.65-1.82.06-.28.13-.57.19-.85,1.07.06,2.18-.05,3.19.22,8.08,2.17,13.73,9.79,14.24,18.8.53,9.57-3.83,17.13-9.96,23.77-3.35,3.63-7.26,6.81-11.17,9.87-7.81,6.1-16.71,10.81-23.19,18.6-.35-.15-.7-.31-1.05-.46Z"/><path class="b" d="m387.98,169.41c4.29.36,8.05,1.59,10.86-2.3,8.69,3.2,12.48,8.7,11.15,16.47-4.23-4.99-10.04-7-15.71-9.3-1.65-.67-3.2-1.65-4.66-2.68-.71-.5-1.11-1.45-1.64-2.2Z"/><path class="b" d="m410.15,320.78c.7,9.28-1.28,12.18-11.2,16.91-2.99-2.94-6.72-2.11-10.39-1.61-.15-.27-.31-.53-.46-.8,1.48-1.23,2.85-2.62,4.47-3.62,1.51-.93,3.26-1.52,4.96-2.13,4.85-1.73,9.22-4.15,12.62-8.75Z"/><path class="b" d="m63.81,167.1c2.98,3.87,6.74,2.61,11.17,1.58-.89,1.26-1.23,2.17-1.89,2.59-2.08,1.32-4.19,2.68-6.46,3.63-4.99,2.1-10.16,3.82-13.66,8.38-2.32-6.11,2.02-12.61,10.83-16.19Z"/><path class="b" d="m52.73,320.8c3.72,5.31,8.79,7.53,14.04,9.57,2.14.83,4.13,2.06,6.08,3.29.77.48,1.24,1.44,2.3,2.73-2.35-.34-3.89-.72-5.44-.73-1.34,0-3,0-3.94.74-1.82,1.42-3.22.92-4.8-.1-1.37-.88-2.8-1.68-4.1-2.65-4.12-3.08-4.9-7.36-4.13-12.85Z"/><path class="b" d="m380.52,299.71c1.09-3.48,2.34-6.6,3.01-9.83.64-3.1.67-6.33.97-9.51.26-.06.52-.12.77-.18.44,1,1.07,1.97,1.3,3.02,1.2,5.57-.25,10.67-2.89,15.55-.87,1.6-2,1.61-3.16.95Z"/><path class="b" d="m81.96,299.67c-.3.11-1.08.39-1.87.68-4.32-5.48-5.95-16.49-2.93-19.77,1.57,6.25,3.15,12.53,4.8,19.1Z"/><path class="b" d="m80.01,204.46c.85.59,1.4.98,1.54,1.07-1.34,6.24-2.62,12.2-4.02,18.68-.49-.89-1.1-1.61-1.28-2.42-1.32-6.22.18-11.85,3.76-17.34Z"/><path class="b" d="m385.47,223.83c-1.56-5.77-3.12-11.39-4.58-17.04-.14-.54.32-1.24.5-1.87.62.27,1.48.37,1.83.85,2.8,3.88,4.04,8.26,3.63,13.03-.16,1.85.18,3.95-1.38,5.03Z"/><path class="b" d="m120.17,437.33c-.01,2.18-1.75,3.97-3.88,3.98-2.25.02-4.06-1.85-4.01-4.13.05-2.38,1.79-4.17,4.01-4.13,2.16.04,3.89,1.95,3.88,4.27Z"/><path class="b" d="m350.26,437.15c.05,2.11-1.71,3.93-3.87,3.99-2.11.06-3.99-1.74-4.02-3.84-.03-2.16,1.91-4.15,4.06-4.15,2.13,0,3.77,1.72,3.83,4.01Z"/><path class="b" d="m350.26,68.99c.04,2.19-1.51,4.13-3.35,4.21-2.04.08-4.43-2.19-4.47-4.23-.03-2.07,1.85-3.95,3.95-3.95,2.15,0,3.83,1.72,3.87,3.98Z"/><path class="b" d="m120.16,68.9c-.01,2.33-1.83,4.21-4.02,4.15-2.18-.06-3.83-1.78-3.85-4.02-.02-2.24,1.6-3.88,3.88-3.92,2.29-.04,4.01,1.59,3.99,3.79Z"/><path class="b" d="m210.28,78.12c.9-1.72,1.6-3.05,2.56-4.89.99,2.02,1.77,3.63,2.77,5.67-1.97-.29-3.52-.52-5.33-.78Z"/><path class="b" d="m247.34,78.35c.78-1.55,1.49-2.96,2.4-4.76,1.04,1.63,1.89,2.97,3.02,4.76h-5.42Z"/><path class="b" d="m249.86,440.18c-.94-1.6-1.65-2.82-2.68-4.57,1.81-.14,3.25-.26,5.41-.43-1.08,1.98-1.78,3.26-2.74,5Z"/><path class="b" d="m209.91,435.59c1.84-.14,3.18-.24,5.11-.38-.84,1.93-1.43,3.27-2.17,4.95-1.01-1.57-1.81-2.81-2.94-4.56Z"/><path class="b" d="m291.98,333.28c-2.25-1.12-3.94-1.95-5.48-2.72-.47.5-1.35,1.89-1.72,1.77-1.44-.48-2.71-1.44-4.05-2.22.08-.29.16-.58.23-.87.73-.28,1.52-.89,2.19-.78,3.19.54,7.05-.24,8.83,4.82Z"/><path class="b" d="m195.29,352.28c8.08-2.61,8.66-3.08,13.21-10.49.15,6.35-6.15,11.59-13.21,10.49Z"/><path class="b" d="m237.93,325.64c-2.58,2.41-5.19,1.27-8.3.35,1.64-1.37,3.01-2.53,4.41-3.7,1.37,1.18,2.61,2.25,3.89,3.35Z"/><path class="b" d="m235.35,321.84c3.48-3.66,4.36-3.67,7.99-.21-2.6,2.7-5.23,1.44-7.99.21Z"/><path class="b" d="m253.58,325.88c3.29-3.09,5.07-2.93,7.05.47-2.33,2.2-3.91,2.12-7.05-.47Z"/><path class="b" d="m241.88,325.81c3.29-3.72,3.82-3.73,7.55-.12-2.33,1.83-5.26,1.87-7.55.12Z"/><path class="b" d="m255.1,321.82c-3.81,2.67-4.44,2.65-7.49-.2,3.78-3,4.4-2.98,7.49.2Z"/><path class="b" d="m232.06,321.97c-2.7,1.2-5.19,1.94-7.65.01,3.28-3.93,3.94-3.94,7.65-.01Z"/><path class="b" d="m226.39,325.68c-2.62,1.76-5.22,1.59-7.86.04,4.64-3.66,3.48-4.05,7.86-.04Z"/><path class="b" d="m264.99,327.69q4.08-2.46,6.95,1.21c-2.72,1.8-5.07,1.42-6.95-1.21Z"/><path class="b" d="m218.52,317.73c1.52-.99,2.73-1.77,4-2.6,1.19.76,2.33,1.5,3.49,2.24-2.79,2.96-3.02,2.98-7.48.36Z"/><path class="b" d="m241.69,317.57c3.51-2.64,4.1-2.61,7.28.35-3.9,2.52-4.59,2.49-7.28-.35Z"/><path class="b" d="m230.02,317.49c3.8-2.92,4.06-2.91,7.07-.02-2.68,2.52-3.91,2.54-7.07.02Z"/><path class="b" d="m301.46,344.07c-4.63.69-5.88.08-5.71-2.53.04-.64.48-1.56.98-1.78.43-.18,1.36.32,1.81.78.97.98,1.79,2.13,2.92,3.53Z"/><path class="b" d="m258.54,316.47c.69.85,1.37,1.7,2.06,2.55-3.07,2.26-3.79,2.19-6.93-1.12,1.81-.53,3.34-.98,4.88-1.43h-.01Z"/><path class="b" d="m259.05,322.82c2.48-1.44,4.42-2.11,6.34-.06.98,1.05.82,1.7-.5,2.25-2.52,1.06-3.86-.72-5.85-2.2Z"/><path class="b" d="m283.34,326.13c-1.92.36-3.59,1.06-5.08.79-.77-.14-1.24-1.99-1.84-3.06,1.93-1.07,3.68-.48,6.92,2.27Z"/><path class="b" d="m291.27,336.63c-.48.73-1.3,2.13-1.39,2.08-1.59-.8-3.1-1.77-4.77-2.8,1.72-2.11,3.05-2.13,4.5-.71.54.53,1.15,1,1.72,1.49l-.06-.07Z"/><path class="b" d="m265.23,320.6c2.46-2.01,5.52-.81,6.07,2.51-2.58.41-4.68-.11-6.07-2.51Z"/><path class="b" d="m270.75,325.36c2.53-1.1,4.75-1.87,6.06,1.29-2.34,2.36-3.39,2.17-6.06-1.29Z"/><path class="b" d="m274.96,330.27c.58-.12,1.17-.19,1.73-.35,2.74-.82,3.81-.24,4.88,2.7-2.59,1.42-3.72,1.1-5.26-1.36-.28-.44-.89-.67-1.36-1.01-.01,0,.02.02.02.02Z"/><path class="b" d="m291.33,336.71c.2-.81.19-2.1.65-2.31.64-.28,1.81.03,2.46.5.93.67,1.6,1.71,2.75,3.02-2.49.33-4.35.36-5.91-1.28,0,0,.06.07.06.07Z"/><path class="b" d="m255.63,314.78c-3.64,2.83-6.13,1.48-8.58-.32.03-.26.06-.51.1-.77,2.63.34,5.25.67,8.48,1.09Z"/><path class="b" d="m235.48,313.43h7.37c-2.84,2.88-3.29,2.9-7.37,0Z"/><path class="b" d="m223.93,314.18c2.58-.93,4.89-1.23,7.59-.21-2.66,2.41-4.97,2.03-7.59.21Z"/><path class="b" d="m219.89,313.67c-2.06,2.42-4.27,2.94-7.19.62,2.74-.24,4.97-.43,7.19-.62Z"/><path class="b" d="m258.55,316.47c2.48-1.11,4.63-.24,7.1,1.03-1.56,1.32-2.74,1.64-4.23.48-.84-.66-1.91-1.01-2.88-1.5,0,0,.01,0,.01,0Z"/><path class="b" d="m299.46,347.49c.9-.26,1.8-.53,2.7-.79.33,1.25.66,2.5.99,3.76-.3.17-.61.35-.91.52-.94-1.18-1.89-2.36-2.84-3.55,0,0,.06.06.06.06Z"/><path class="b" d="m275.68,322.21c-1.87-.79-3.73-1.58-5.6-2.37.11-.29.22-.57.32-.86,1.88.69,3.75,1.37,5.63,2.06l-.35,1.17Z"/><path class="b" d="m171.92,230.37c-21.9-1.67-59.67-35.04-63.28-55.91,2.15-.7,3.26-.11,4.15,2.2,4.79,12.38,12.99,22.3,22.84,30.99,10.06,8.88,21.57,15.17,34.29,19.37,1.07.35,1.77,1.81,2.65,2.75-.22.2-.43.4-.65.61Z"/><path class="b" d="m97.47,255.04c.05,2.14-1.46,3.74-3.65,3.86-2.33.13-4.56-1.81-4.55-3.96.01-1.91,1.85-3.7,3.88-3.76,2.3-.07,4.27,1.69,4.32,3.86Z"/><path class="b" d="m99.07,211.4c.95,1.24,1.95,2.01,1.84,2.52-.19.8-1.13,1.42-1.76,2.12-.61-.6-1.66-1.16-1.71-1.79-.05-.72.81-1.5,1.63-2.85Z"/><path class="b" d="m96.69,278.58c.7,1.22,1.51,2,1.41,2.63-.11.64-1.18,1.6-1.74,1.54-.64-.07-1.62-1.11-1.62-1.73,0-.66.99-1.31,1.95-2.44Z"/><path class="b" d="m96.77,265.09c-1.2.82-1.93,1.71-2.57,1.65-.68-.07-1.27-1.03-1.89-1.6.65-.66,1.21-1.66,1.97-1.85.51-.13,1.31.9,2.49,1.8Z"/><path class="b" d="m99.76,221.43c-1.13.91-1.87,1.93-2.37,1.82-.78-.17-1.4-1.1-2.08-1.71.61-.58,1.16-1.55,1.84-1.64.62-.09,1.38.76,2.62,1.53Z"/><path class="b" d="m97.3,237.49c-1.39.75-2.14,1.48-2.83,1.43-.58-.04-1.09-1-1.64-1.55.61-.57,1.18-1.53,1.84-1.6.62-.06,1.34.82,2.63,1.71Z"/><path class="b" d="m101.26,289.26c-1.33.84-2.08,1.69-2.71,1.61-.65-.08-1.19-1.07-1.78-1.67.62-.58,1.2-1.52,1.89-1.62.6-.08,1.33.8,2.61,1.67Z"/><path class="b" d="m95.78,231.92c-.93-1.24-1.88-1.96-1.81-2.55.09-.66,1.03-1.5,1.74-1.66.41-.1,1.51.93,1.56,1.52.05.67-.72,1.4-1.5,2.69Z"/><path class="b" d="m94.02,242.73c.85,1.16,1.8,1.91,1.71,2.48-.1.6-1.17,1.36-1.88,1.44-.5.05-1.59-.96-1.56-1.43.06-.7.87-1.34,1.72-2.49Z"/><path class="b" d="m103.5,206.53c-1.23.89-1.95,1.81-2.54,1.73-.67-.09-1.22-1.07-1.82-1.67.56-.56,1.08-1.52,1.68-1.56.66-.05,1.39.73,2.68,1.5Z"/><path class="b" d="m97.53,272.69c-1.16.97-1.81,1.93-2.45,1.93-.61,0-1.66-.99-1.7-1.6-.04-.58.89-1.62,1.53-1.75.6-.12,1.38.7,2.62,1.42Z"/><path class="b" d="m106.41,304.4c-1.26.91-1.92,1.74-2.62,1.77-.55.03-1.55-.9-1.6-1.47-.05-.55.83-1.61,1.38-1.66.7-.07,1.47.65,2.84,1.36Z"/><path class="b" d="m103.33,297.12c-1.12.79-1.79,1.62-2.51,1.65-.54.03-1.13-.95-1.7-1.47.66-.64,1.23-1.51,2.02-1.82.35-.14,1.15.83,2.18,1.64Z"/><path class="b" d="m230.31,416.64c-1.15.98-1.96,2.07-2.38,1.94-.8-.25-1.7-1.11-1.92-1.9-.13-.46.98-1.8,1.52-1.79.76,0,1.51.89,2.79,1.76Z"/><path class="b" d="m237.59,416.57c-1.18.99-1.96,2.07-2.43,1.94-.77-.2-1.72-1.1-1.87-1.85-.11-.52.96-1.79,1.56-1.82.71-.04,1.48.88,2.74,1.73Z"/><path class="b" d="m215.76,415.74c-1.17.87-2,1.88-2.49,1.74-.76-.21-1.76-1.21-1.78-1.9-.02-.63,1.11-1.77,1.78-1.8.66-.04,1.38,1.03,2.5,1.96Z"/><path class="b" d="m244.77,416.11c-1.05.89-1.77,1.93-2.28,1.83-.78-.15-1.4-1.08-2.09-1.68.63-.68,1.16-1.69,1.93-1.92.48-.14,1.31.9,2.45,1.77Z"/><path class="b" d="m201.36,412.91c-1.33.83-2.12,1.7-2.82,1.64-.59-.05-1.62-1.31-1.5-1.81.17-.72,1.14-1.56,1.89-1.71.5-.1,1.23.91,2.42,1.89Z"/><path class="b" d="m263.73,409.57c.89,1.37,1.87,2.26,1.7,2.74-.31.86-1.31,1.48-2.02,2.2-.52-.68-1.46-1.37-1.44-2.04.02-.77.87-1.52,1.76-2.9Z"/><path class="b" d="m206.12,417.06c-.92-1.21-1.84-1.9-1.89-2.65-.04-.57,1.03-1.21,1.61-1.82.62.68,1.48,1.27,1.76,2.06.15.43-.7,1.21-1.48,2.42Z"/><path class="b" d="m251.94,415.25c-1.22.87-1.95,1.79-2.55,1.71-.69-.1-1.27-1.07-1.89-1.66.65-.63,1.22-1.59,1.98-1.78.5-.12,1.28.86,2.46,1.73Z"/><path class="b" d="m223.06,416.46c-1.24.9-1.97,1.83-2.53,1.74-.69-.12-1.66-1.05-1.72-1.7-.05-.61.93-1.84,1.46-1.84.74,0,1.47.89,2.79,1.8Z"/><path class="b" d="m270.66,412.92c-.78-1.2-1.64-1.93-1.56-2.54.09-.68,1.03-1.26,1.6-1.88.64.65,1.62,1.22,1.81,1.99.12.49-.92,1.27-1.84,2.43Z"/><path class="b" d="m256.34,416.79c-.84-1.32-1.78-2.22-1.61-2.68.29-.74,1.25-1.41,2.06-1.66.32-.1,1.51,1.09,1.43,1.54-.14.8-.95,1.49-1.89,2.8Z"/><path class="b" d="m193.91,410.7c-1.2.79-1.97,1.68-2.57,1.58-.64-.11-1.54-1.15-1.55-1.8,0-.56,1.06-1.57,1.67-1.59.64-.02,1.31.91,2.45,1.81Z"/><path class="b" d="m259.44,100.72c-1.25.85-2.17,1.85-2.58,1.67-.82-.35-1.36-1.35-2.02-2.08.66-.54,1.34-1.54,1.96-1.5.75.05,1.44.98,2.65,1.9Z"/><path class="b" d="m212.82,96.46c1.03,1.42,2.02,2.19,1.95,2.86-.07.7-1.08,1.67-1.82,1.82-.49.1-1.69-.97-1.75-1.6-.07-.73.76-1.55,1.62-3.08Z"/><path class="b" d="m205.97,97.58c.85,1.58,1.73,2.47,1.58,3.12-.16.71-1.28,1.21-1.99,1.8-.52-.64-1.46-1.3-1.44-1.92.03-.77.87-1.5,1.85-3Z"/><path class="b" d="m187.08,106.77c-1.34.86-2.11,1.73-2.87,1.73-.56,0-1.66-1.32-1.53-1.76.23-.77,1.14-1.64,1.92-1.83.5-.12,1.27.9,2.49,1.86Z"/><path class="b" d="m201.31,102.17c-1.49.85-2.3,1.69-3.04,1.63-.6-.05-1.58-1.2-1.54-1.81.04-.64,1.08-1.7,1.69-1.7.74,0,1.48.91,2.88,1.89Z"/><path class="b" d="m230.16,97.81c-1.16.95-1.89,1.98-2.41,1.88-.73-.13-1.66-1.02-1.82-1.74-.11-.51.91-1.78,1.44-1.79.74-.01,1.5.83,2.8,1.65Z"/><path class="b" d="m234.87,100.87c-.83-1.4-1.71-2.25-1.56-2.82.2-.76,1.2-1.32,1.86-1.96.53.65,1.48,1.31,1.47,1.94-.02.76-.87,1.49-1.76,2.83Z"/><path class="b" d="m274.09,104.34c-1.29.99-1.97,1.93-2.59,1.89-.67-.04-1.7-.93-1.79-1.56-.08-.58.84-1.81,1.39-1.85.74-.06,1.56.74,3,1.53Z"/><path class="b" d="m191.19,101.66c.94,1.15,1.96,1.88,1.87,2.43-.13.77-1.08,1.41-1.68,2.1-.58-.61-1.54-1.16-1.63-1.83-.09-.65.71-1.43,1.43-2.7Z"/><path class="b" d="m242.33,101.57c-.85-1.54-1.64-2.35-1.58-3.09.05-.62,1.13-1.66,1.69-1.62.64.04,1.67,1.06,1.69,1.68.02.75-.84,1.52-1.79,3.03Z"/><path class="b" d="m220.31,101.29c-.81-1.32-1.71-2.12-1.59-2.73.15-.76,1.13-1.35,1.76-2.02.52.68,1.4,1.33,1.44,2.04.04.68-.79,1.41-1.61,2.71Z"/><path class="b" d="m280.93,107.44c-1.32.76-2.2,1.62-2.65,1.44-.76-.31-1.55-1.23-1.71-2.01-.09-.43,1.18-1.64,1.69-1.57.76.11,1.41,1.06,2.67,2.14Z"/><path class="b" d="m177.46,112.36c-.87-1.3-1.82-2.12-1.68-2.66.19-.74,1.14-1.66,1.88-1.77.51-.08,1.7,1.09,1.69,1.69-.01.74-.95,1.47-1.89,2.75Z"/><path class="b" d="m264.2,105.04c-.86-1.15-1.75-1.81-1.73-2.45.02-.67.92-1.31,1.43-1.96.67.59,1.7,1.09,1.9,1.81.15.53-.8,1.36-1.6,2.6Z"/><path class="b" d="m249.66,102.04c-.83-1.18-1.75-1.91-1.66-2.5.11-.76,1.03-1.39,1.6-2.08.62.67,1.59,1.27,1.75,2.04.12.55-.84,1.33-1.7,2.54Z"/><path class="b" d="m294.4,113.45c-1.39.8-2.29,1.68-2.75,1.5-.75-.3-1.22-1.31-1.81-2.01.59-.49,1.25-1.43,1.76-1.36.78.11,1.46.92,2.8,1.88Z"/><path class="b" d="m284.88,112.76c-.84-1.22-1.76-1.97-1.69-2.6.07-.66,1.11-1.21,1.73-1.81.59.62,1.58,1.2,1.66,1.88.07.62-.85,1.35-1.7,2.53Z"/><path class="b" d="m170.76,110.34c.79.98,1.72,1.66,1.62,2.13-.14.72-1,1.31-1.55,1.95-.63-.54-1.73-1.06-1.76-1.63-.03-.66.89-1.37,1.68-2.45Z"/><path class="b" d="m289.86,237.18c.43-2.73,1.13-4.73,3.93-6.3,12.55-7,23.24-16.38,33.02-26.85,9.32-9.99,17.21-20.94,22.53-33.59,1-2.37,2.69-1.44,4.27-1.52-.88,16.66-42.95,61.71-63.75,68.25Z"/><path class="b" d="m292,226.63c.31-1.75.49-3.54.99-5.24.19-.66,1.02-1.26,1.7-1.63,9.95-5.49,14.11-18.75,8.85-28.8-1.12-2.13-2.9-3.91-4.47-5.96,3.49.45,6.32,2.17,8.44,5,3.46,4.63,4.14,9.9,3.11,15.42-1.17,6.3-4.22,11.6-9.25,15.6-2.78,2.21-5.82,4.11-8.74,6.16l-.63-.56Z"/><path class="b" d="m365.05,254.64c.22-2.14,2.28-3.7,4.59-3.45,2.14.23,3.77,2.02,3.56,3.9-.26,2.34-2.12,3.98-4.3,3.79-2.36-.21-4.07-2.08-3.85-4.23Z"/><path class="b" d="m361.91,294.41c.74,1.22,1.59,1.99,1.5,2.63-.09.68-1.07,1.24-1.66,1.85-.62-.69-1.59-1.31-1.73-2.08-.1-.53.96-1.28,1.9-2.4Z"/><path class="b" d="m368.81,281.04c-1.12.87-1.8,1.82-2.46,1.8-.65-.02-1.86-1.14-1.77-1.54.17-.78.98-1.76,1.72-1.97.51-.14,1.34.87,2.51,1.71Z"/><path class="b" d="m370.85,237.11c-1.24.8-2.03,1.7-2.62,1.59-.75-.14-1.34-1.11-1.99-1.72.66-.53,1.3-1.44,1.99-1.49.66-.04,1.39.81,2.62,1.63Z"/><path class="b" d="m367.39,231.93c-.96-1.27-1.87-1.95-1.84-2.58.03-.66.94-1.71,1.55-1.77.61-.06,1.83.86,1.87,1.41.05.75-.77,1.55-1.58,2.95Z"/><path class="b" d="m366.83,289.23c-1.25.83-1.99,1.71-2.62,1.64-.67-.08-1.25-1.05-1.86-1.64.61-.61,1.17-1.62,1.84-1.7.63-.08,1.38.83,2.65,1.69Z"/><path class="b" d="m368.84,267.89c-.98-1.47-1.78-2.19-1.88-3-.06-.49,1.09-1.66,1.47-1.57.73.18,1.67.94,1.83,1.62.14.61-.64,1.44-1.42,2.95Z"/><path class="b" d="m367.85,270.47c.81,1.28,1.61,1.99,1.58,2.66-.03.58-1.1,1.61-1.55,1.53-.69-.12-1.64-.98-1.72-1.62-.08-.6.83-1.33,1.7-2.57Z"/><path class="b" d="m363.65,216.45c-.9-1.21-1.85-1.94-1.75-2.49.12-.71,1.02-1.7,1.68-1.77.59-.07,1.84.93,1.84,1.46,0,.74-.88,1.48-1.77,2.8Z"/><path class="b" d="m361.43,208.88c-.97-1.03-2.03-1.77-1.91-2.1.28-.8,1.02-1.58,1.77-1.99.26-.14,1.64.88,1.61,1.3-.06.8-.77,1.56-1.47,2.79Z"/><path class="b" d="m365.79,224.04c-.84-1.16-1.67-1.83-1.7-2.52-.02-.53,1.03-1.59,1.52-1.54.7.07,1.79.88,1.86,1.47.07.63-.85,1.38-1.69,2.59Z"/><path class="b" d="m358.42,307.28c-.78-1.28-1.66-2.09-1.52-2.63.18-.64,1.19-1.33,1.92-1.42.43-.06,1.45,1.03,1.4,1.53-.06.69-.88,1.31-1.81,2.51Z"/><path class="b" d="m361.04,198.53c-1.1.87-1.76,1.77-2.28,1.7-.71-.1-1.32-.94-1.97-1.47.51-.58,1-1.61,1.54-1.64.71-.04,1.46.71,2.71,1.41Z"/><path class="b" d="m371.38,245.06c-1.22.74-1.91,1.48-2.6,1.48-.59,0-1.18-.85-1.78-1.32.67-.62,1.25-1.49,2.04-1.76.4-.14,1.18.77,2.34,1.61Z"/><path class="b" d="m303.53,141.98c2.81,2.27,5.62,4.54,8.42,6.81-.06.28-.12.56-.17.84-.74-.09-1.74.09-2.17-.33-2.26-2.17-4.38-4.49-6.54-6.76.15-.19.31-.38.46-.57Z"/><path class="b" d="m243.79,132.38c-.68.8-1.24,1.56-1.9,2.23-.66.66-1.42,1.23-2.44,2.11,1.72,1.82,3.38,3.59,5.22,5.54-4.58,4.39-9.1,8.7-13.51,12.92-4.12-4.11-8.46-8.45-12.98-12.96,1.33-1.51,2.89-3.29,4.56-5.19-1.5-1.31-2.96-2.57-4.71-4.09,4.24-4.31,8.03-8.25,11.97-12.04.43-.41,2.05-.3,2.54.17,3.76,3.62,7.39,7.39,11.25,11.32Zm-12.93,16.8c2.86-2.52,5.46-4.82,8.2-7.23-.89-.71-1.52-1.22-2.76-2.22-1.68,2.01-3.31,3.96-4.9,5.86q-6.23-5.18-7.9-3.28c2.54,2.37,5.09,4.75,7.36,6.87Zm.63-23.64c-2.51,2.48-4.78,4.72-7.11,7.02.52.47,1.08.98,1.75,1.58,1.73-1.48,3.41-2.91,5.23-4.47,1.63,1.51,3.24,2.99,4.98,4.6.72-.84,1.35-1.58,1.99-2.32-2.43-2.28-4.66-4.37-6.85-6.42Zm-2.74,12.22c.85.76,1.73,1.55,2.67,2.4.99-1.05,1.73-1.83,2.45-2.6-2.58-3.25-3.02-3.24-5.12.2Z"/><path class="b" d="m215.91,133.84c3.58,3.36,3.58,3.61-.11,6.55-.99-.93-2.01-1.88-3.17-2.96,1.15-1.26,2.17-2.38,3.28-3.6Z"/><path class="b" d="m246.85,140.36c-1.26-1.19-2.36-2.22-3.53-3.32.96-1.13,1.83-2.16,2.89-3.41,1.13,1.2,2.15,2.28,3.32,3.53-.91,1.09-1.76,2.1-2.69,3.2Z"/><path class="b" d="m152.7,151.92c3.3-3.68,6.6-7.37,9.9-11.05-.02-.02-.04-.04-.06-.06-3.21,3.76-6.43,7.51-9.64,11.27-.07-.05-.13-.11-.2-.16Z"/><path class="b" d="m308.01,257.29c-.96-.89-2.32-2.14-3.8-3.5,1.15-1.2,2.26-2.36,3.56-3.73,1.41,1.34,2.75,2.6,4.41,4.17-1.52,1.12-2.94,2.16-4.17,3.07Z"/><path class="b" d="m157.99,254.41c-.99.94-2.28,2.16-3.68,3.5-1.23-1.35-2.37-2.59-3.71-4.05,1.34-1.13,2.64-2.22,4.33-3.64.86,1.17,1.89,2.6,3.06,4.2Z"/><path class="b" d="m233.22,266.61c-.64.61-1.16,1.11-1.79,1.71-.64-.6-1.17-1.08-1.68-1.56q1.52-2.13,3.47-.15Z"/><path class="b" d="m283,307.3c-.92.62-1.84,1.73-2.74,1.72-.81-.01-1.6-1.27-2.39-1.98.8-.8,1.49-2.02,2.44-2.26.71-.18,1.74.9,2.62,1.42.03.37.05.73.08,1.1Z"/><path class="b" d="m182.9,303.33c1.02,1.69,2.11,2.71,1.96,3.47-.17.83-1.43,1.84-2.34,1.98-.58.09-2.02-1.33-1.95-1.93.13-1,1.17-1.88,2.32-3.52Z"/><path class="b" d="m187.17,332.04c-1.09.78-1.84,1.68-2.29,1.55-.8-.24-1.42-1.09-2.11-1.69.57-.6,1.2-1.73,1.7-1.67.8.09,1.52.96,2.7,1.82Z"/></svg>