<svg xmlns="http://www.w3.org/2000/svg" viewBox="0 0 17.247 17.247">
    <path
        d="M15.091 0H2.156A2.156 2.156 0 0 0 0 2.156v12.935a2.156 2.156 0 0 0 2.156 2.156h12.935a2.156 2.156 0 0 0 2.156-2.156V2.156A2.156 2.156 0 0 0 15.091 0ZM1.078 4.157a1.01 1.01 0 0 1 1.078-.924h12.935a1.01 1.01 0 0 1 1.078.924v11.088a1.01 1.01 0 0 1-1.078.924H2.156a1.01 1.01 0 0 1-1.078-.924Z"
        fill-rule="evenodd" />
    <path
        d="M7.007 7.546a1.078 1.078 0 1 0-1.078-1.078 1.078 1.078 0 0 0 1.078 1.078Zm3.234 0a1.078 1.078 0 1 0-1.078-1.078 1.078 1.078 0 0 0 1.077 1.078Zm3.234 0a1.078 1.078 0 1 0-1.078-1.078 1.078 1.078 0 0 0 1.073 1.078ZM3.77 10.78a1.078 1.078 0 1 0-1.078-1.078A1.078 1.078 0 0 0 3.77 10.78Zm3.234 0a1.078 1.078 0 1 0-1.078-1.078 1.078 1.078 0 0 0 1.081 1.078Zm3.234 0A1.078 1.078 0 1 0 9.16 9.702a1.078 1.078 0 0 0 1.08 1.078Zm3.234 0a1.078 1.078 0 1 0-1.078-1.078 1.078 1.078 0 0 0 1.076 1.078ZM3.77 14.013a1.078 1.078 0 1 0-1.075-1.073 1.078 1.078 0 0 0 1.075 1.073Zm3.234 0a1.078 1.078 0 1 0-1.075-1.073 1.078 1.078 0 0 0 1.078 1.073Zm3.234 0a1.078 1.078 0 1 0-1.075-1.073 1.078 1.078 0 0 0 1.077 1.073Z"
        fill-rule="evenodd" />
</svg>