<svg xmlns="http://www.w3.org/2000/svg" viewBox="0 0 16 15.333">
    <path d="M0 2a2 2 0 0 1 2-2h12a2 2 0 0 1 2 2v8a2 2 0 0 1-2 2h-2.5a1 1 0 0 0-.8.4l-1.9 2.533a1 1 0 0 1-1.6 0L5.3 12.4a1 1 0 0 0-.8-.4H2a2 2 0 0 1-2-2Zm7.194 2.766a1.688 1.688 0 0 0-.227-.272A1.467 1.467 0 0 0 6.5 4.17h-.008A1.785 1.785 0 0 0 5.734 4 1.7 1.7 0 0 0 4 5.667a1.7 1.7 0 0 0 1.734 1.666 1.774 1.774 0 0 0 .931-.26 3.252 3.252 0 0 1-.81 1.22.4.4 0 0 0 .011.59.448.448 0 0 0 .614-.01 3.259 3.259 0 0 0 .941-3.706 2.461 2.461 0 0 0-.227-.4ZM11 7.073a3.24 3.24 0 0 1-.81 1.22.405.405 0 0 0 .012.59.446.446 0 0 0 .613-.01 3.262 3.262 0 0 0 .942-3.706 2.466 2.466 0 0 0-.228-.4 1.686 1.686 0 0 0-.227-.273 1.466 1.466 0 0 0-.469-.324h-.008A1.785 1.785 0 0 0 10.07 4a1.7 1.7 0 0 0-1.734 1.667 1.7 1.7 0 0 0 1.734 1.666 1.774 1.774 0 0 0 .93-.26Z"/>
</svg>