<svg xmlns="http://www.w3.org/2000/svg" viewBox="0 0 16 12">
    <path d="M12 12H3.5a3.373 3.373 0 0 1-2.477-1.023A3.373 3.373 0 0 1 0 8.5a3.384 3.384 0 0 1 .859-2.3A3.348 3.348 0 0 1 3 5.047V5a4.878 4.878 0 0 1 .672-2.508 5 5 0 0 1 1.82-1.82A4.878 4.878 0 0 1 8 0a4.824 4.824 0 0 1 2.82.875 4.977 4.977 0 0 1 1.82 2.281A4.482 4.482 0 0 1 16 7.5a4.383 4.383 0 0 1-1.156 3.023A4.352 4.352 0 0 1 12 12Zm-1.188-5H9V4.5a.507.507 0 0 0-.5-.5h-1a.507.507 0 0 0-.5.5V7H5.187q-.125 0-.172.227a.4.4 0 0 0 .078.367L7.7 9.859a.384.384 0 0 0 .594 0l2.609-2.266a.4.4 0 0 0 .078-.367Q10.937 7 10.812 7Z"/>
</svg>