<svg xmlns="http://www.w3.org/2000/svg" viewBox="0 0 12 12">
    <path d="M.667 6.667h4A.667.667 0 0 0 5.333 6V.667A.667.667 0 0 0 4.667 0h-4A.667.667 0 0 0 0 .667V6a.667.667 0 0 0 .667.667ZM0 11.333A.667.667 0 0 0 .667 12h4a.667.667 0 0 0 .667-.667V8.667A.667.667 0 0 0 4.667 8h-4A.667.667 0 0 0 0 8.667Zm6.667 0a.667.667 0 0 0 .666.667h4a.667.667 0 0 0 .667-.667V6.667A.667.667 0 0 0 11.333 6h-4a.667.667 0 0 0-.667.667Zm.667-6.667h4A.667.667 0 0 0 12 4V.667A.667.667 0 0 0 11.333 0h-4a.667.667 0 0 0-.667.667V4a.667.667 0 0 0 .667.667Z"/>
</svg>